<svg width="22" height="12" viewBox="0 0 22 12" fill="none" xmlns="http://www.w3.org/2000/svg">
<path d="M6 12H17.4545V10.3636H6C4.8 10.3636 3.77273 9.93636 2.91818 9.08182C2.06364 8.22727 1.63636 7.2 1.63636 6C1.63636 4.8 2.06364 3.77273 2.91818 2.91818C3.77273 2.06364 4.8 1.63636 6 1.63636H17.4545C18.2182 1.63636 18.8636 1.9 19.3909 2.42727C19.9182 2.95455 20.1818 3.6 20.1818 4.36364C20.1818 5.12727 19.9182 5.77273 19.3909 6.3C18.8636 6.82727 18.2182 7.09091 17.4545 7.09091H7.09091C6.78182 7.09091 6.52291 6.98618 6.31418 6.77673C6.10473 6.568 6 6.30909 6 6C6 5.69091 6.10473 5.43164 6.31418 5.22218C6.52291 5.01345 6.78182 4.90909 7.09091 4.90909H17.4545V3.27273H7.09091C6.32727 3.27273 5.68182 3.53636 5.15455 4.06364C4.62727 4.59091 4.36364 5.23636 4.36364 6C4.36364 6.76364 4.62727 7.40909 5.15455 7.93636C5.68182 8.46364 6.32727 8.72727 7.09091 8.72727H17.4545C18.6545 8.72727 19.6818 8.3 20.5364 7.44545C21.3909 6.59091 21.8182 5.56364 21.8182 4.36364C21.8182 3.16364 21.3909 2.13636 20.5364 1.28182C19.6818 0.427273 18.6545 0 17.4545 0H6C4.32727 0 2.90909 0.581818 1.74545 1.74545C0.581818 2.90909 0 4.32727 0 6C0 7.67273 0.581818 9.09091 1.74545 10.2545C2.90909 11.4182 4.32727 12 6 12Z" fill="white"/>
</svg>
