<svg width="47" height="47" viewBox="0 0 47 47" fill="none" xmlns="http://www.w3.org/2000/svg">
<path d="M39.3036 12.4351H29.3748V15.1964H39.3428L39.3036 12.4351ZM37.2082 31.4309C36.455 31.93 35.5655 32.1832 34.6623 32.1555C34.0645 32.2178 33.4603 32.1561 32.8874 31.9741C32.3146 31.7922 31.7854 31.4939 31.3332 31.098C30.497 30.1499 30.0617 28.9142 30.119 27.6514H43.0832C43.1766 26.3364 43.0643 25.015 42.7503 23.7347C42.4465 22.5166 41.9149 21.3671 41.1836 20.3468C40.4475 19.357 39.4968 18.5469 38.4028 17.9772C37.1855 17.377 35.8431 17.075 34.4861 17.0959C33.2099 17.0866 31.9447 17.333 30.7653 17.8205C29.6852 18.2758 28.7066 18.9415 27.8865 19.7789C27.0687 20.6329 26.4354 21.6462 26.0261 22.7555C25.5868 23.9531 25.3679 25.2204 25.3798 26.4959C25.3597 27.7896 25.5719 29.0764 26.0065 30.2951C26.3756 31.3987 26.9615 32.4174 27.7298 33.2914C28.5247 34.1494 29.5017 34.8186 30.589 35.2497C31.8014 35.7116 33.0909 35.9376 34.3882 35.9155C36.2083 35.9723 38.0053 35.4958 39.5582 34.5447C41.1266 33.4301 42.2558 31.8021 42.7503 29.9426H38.4223C38.1906 30.5578 37.7643 31.0804 37.2082 31.4309ZM30.4911 23.3626C30.6435 22.8744 30.8965 22.4234 31.2338 22.0389C31.5711 21.6544 31.9852 21.3448 32.4494 21.1301C33.0643 20.8534 33.7338 20.7195 34.4078 20.7384C34.8946 20.6969 35.3847 20.7611 35.8445 20.9267C36.3042 21.0923 36.7226 21.3555 37.0711 21.698C37.7365 22.5126 38.1635 23.4954 38.3048 24.5376H30.1778C30.2094 24.1396 30.2816 23.7459 30.3932 23.3626H30.4911ZM20.1315 22.4226C21.1282 22.0076 21.9943 21.3309 22.6382 20.4643C23.23 19.5439 23.524 18.4635 23.4803 17.3701C23.5186 16.373 23.3242 15.3807 22.9123 14.4718C22.5663 13.6844 22.0109 13.007 21.3065 12.5134C20.5597 12.0003 19.7116 11.6531 18.8194 11.4951C17.7635 11.2736 16.6865 11.1686 15.6078 11.1818H3.9165V35.8176H15.8623C16.9525 35.8184 18.0384 35.6802 19.0936 35.4064C20.0938 35.1476 21.0414 34.7169 21.894 34.1334C22.7199 33.561 23.3924 32.7944 23.8523 31.9009C24.3613 30.9018 24.6105 29.7905 24.5769 28.6697C24.614 27.2807 24.2244 25.9138 23.4607 24.753C22.6393 23.5857 21.4211 22.7573 20.0336 22.4226H20.1315ZM9.34109 15.3922H14.4132C14.8791 15.3916 15.3443 15.4309 15.8036 15.5097C16.2265 15.5724 16.6326 15.7188 16.9982 15.9405C17.3514 16.1403 17.6375 16.4401 17.8207 16.8022C18.0475 17.2364 18.1556 17.7228 18.134 18.2122C18.1705 18.6337 18.106 19.0578 17.946 19.4495C17.7859 19.8411 17.5349 20.189 17.2136 20.4643C16.5127 20.9461 15.6741 21.1867 14.8244 21.1497H9.34109V15.3922ZM18.8194 29.9622C18.6182 30.3613 18.314 30.6994 17.9382 30.9414C17.5471 31.1846 17.1162 31.357 16.6653 31.4505C16.164 31.5627 15.6513 31.6153 15.1378 31.6072H9.26275V24.8509H15.1378C16.1459 24.8068 17.1416 25.0883 17.9773 25.6539C18.3549 25.9927 18.6474 26.4157 18.8311 26.8886C19.0149 27.3615 19.0846 27.871 19.0348 28.3759C19.0878 28.9143 19.014 29.4575 18.8194 29.9622Z" fill="#053EFF"/>
</svg>
