<svg width="24" height="24" viewBox="0 0 24 24" fill="none" xmlns="http://www.w3.org/2000/svg">
<path d="M12.0209 3.53552C10.9066 3.53552 9.80321 3.755 8.77373 4.18142C7.74425 4.60785 6.80884 5.23287 6.02092 6.02079L12.0209 12.0208V3.53552Z" fill="#FF0C0C"/>
<path d="M5.99998 5.99999C5.21205 6.78792 4.58703 7.72333 4.1606 8.75281C3.73418 9.78228 3.5147 10.8857 3.5147 12L12 12L5.99998 5.99999Z" fill="#FA9C57"/>
<path d="M3.51465 12C3.51465 13.1143 3.73413 14.2177 4.16055 15.2471C4.58697 16.2766 5.21199 17.212 5.99992 17.9999L11.9999 12L3.51465 12Z" fill="#EFF310"/>
<path d="M6.00002 17.9999C6.78795 18.7879 7.72336 19.4129 8.75284 19.8393C9.78231 20.2657 10.8857 20.4852 12 20.4852L12 12L6.00002 17.9999Z" fill="#56F20C"/>
<path d="M12.0206 20.506C13.1349 20.506 14.2383 20.2865 15.2678 19.8601C16.2973 19.4337 17.2327 18.8087 18.0206 18.0207L12.0206 12.0208L12.0206 20.506Z" fill="#03FDD0"/>
<path d="M18 17.9999C18.788 17.212 19.413 16.2766 19.8394 15.2471C20.2658 14.2177 20.4853 13.1143 20.4853 12L12 12L18 17.9999Z" fill="#116FFC"/>
<path d="M20.5059 12.0208C20.5059 10.9065 20.2864 9.80308 19.86 8.77361C19.4335 7.74413 18.8085 6.80872 18.0206 6.02079L12.0206 12.0208L20.5059 12.0208Z" fill="#E106F4"/>
<path d="M18 5.99998C17.212 5.21205 16.2766 4.58703 15.2472 4.1606C14.2177 3.73418 13.1143 3.5147 12 3.5147L12 12L18 5.99998Z" fill="#E80672"/>
</svg>
