<svg width="36" height="36" viewBox="0 0 36 36" fill="none" xmlns="http://www.w3.org/2000/svg">
<mask id="mask0_2295_25166" style="mask-type:alpha" maskUnits="userSpaceOnUse" x="0" y="0" width="36" height="36">
<rect width="36" height="36" fill="#D9D9D9"/>
</mask>
<g mask="url(#mask0_2295_25166)">
<path d="M18.0003 1.50031L31.8 9.74971C32.2254 9.99991 32.5317 10.3314 32.7189 10.7442C32.9067 11.1564 33.0006 11.5749 33.0006 11.9997V28.9872C33.0006 29.6622 32.7504 30.2499 32.25 30.7503C31.7502 31.2501 31.1628 31.5 30.4878 31.5H5.5128C4.8378 31.5 4.2504 31.2501 3.7506 30.7503C3.2502 30.2499 3 29.6622 3 28.9872V11.9997C3 11.5749 3.0939 11.1564 3.2817 10.7442C3.4689 10.3314 3.7752 9.99991 4.2006 9.74971L18.0003 1.50031ZM18.0003 18.9747L30.3006 11.7378L18.0003 4.34971L5.7 11.7378L18.0003 18.9747ZM18.0003 21.825L5.5128 14.4378V28.9872H30.4878V14.4378L18.0003 21.825Z" fill="white"/>
</g>
</svg>
