<svg width="47" height="47" viewBox="0 0 47 47" fill="none" xmlns="http://www.w3.org/2000/svg">
<path d="M40.929 3.91699H6.07067C5.49935 3.91699 4.95143 4.14395 4.54744 4.54793C4.14346 4.95192 3.9165 5.49984 3.9165 6.07116V40.9295C3.9165 41.2124 3.97222 41.4925 4.08048 41.7539C4.18874 42.0152 4.34741 42.2527 4.54744 42.4527C4.74748 42.6528 4.98495 42.8114 5.24631 42.9197C5.50766 43.0279 5.78778 43.0837 6.07067 43.0837H24.8315V27.9066H19.7398V22.0316H24.8315V17.6253C24.726 16.5908 24.8482 15.5458 25.1893 14.5635C25.5305 13.5813 26.0824 12.6855 26.8064 11.9391C27.5304 11.1927 28.4089 10.6138 29.3804 10.2429C30.3518 9.87196 31.3926 9.71807 32.4298 9.79199C33.9541 9.78261 35.4776 9.86107 36.9928 10.027V15.3145H33.879C31.4115 15.3145 30.9415 16.4895 30.9415 18.1932V21.9728H36.8165L36.0528 27.8478H30.9415V43.0837H40.929C41.2119 43.0837 41.492 43.0279 41.7534 42.9197C42.0147 42.8114 42.2522 42.6528 42.4522 42.4527C42.6523 42.2527 42.8109 42.0152 42.9192 41.7539C43.0275 41.4925 43.0832 41.2124 43.0832 40.9295V6.07116C43.0832 5.78827 43.0275 5.50815 42.9192 5.2468C42.8109 4.98544 42.6523 4.74797 42.4522 4.54793C42.2522 4.3479 42.0147 4.18923 41.7534 4.08097C41.492 3.97271 41.2119 3.91699 40.929 3.91699Z" fill="#4267B2"/>
</svg>
