<svg width="96" height="97" viewBox="0 0 96 97" fill="none" xmlns="http://www.w3.org/2000/svg">
<circle cx="47.9987" cy="48.2507" r="47.9167" fill="#02272F" fill-opacity="0.7"/>
<path d="M38.3266 41.1638V38.3066H40.2396V41.1638H43.1092V43.0685H40.2396V45.9257H38.3266V43.0685H35.457V41.1638H38.3266ZM41.1962 46.8781V44.0209H44.0657V41.1638H50.7614L52.5118 43.0685H55.544C56.5962 43.0685 57.457 43.9257 57.457 44.9733V56.4019C57.457 57.4495 56.5962 58.3066 55.544 58.3066H40.2396C39.1875 58.3066 38.3266 57.4495 38.3266 56.4019V46.8781H41.1962ZM47.8918 55.4495C50.5318 55.4495 52.6744 53.3162 52.6744 50.6876C52.6744 48.059 50.5318 45.9257 47.8918 45.9257C45.2518 45.9257 43.1092 48.059 43.1092 50.6876C43.1092 53.3162 45.2518 55.4495 47.8918 55.4495ZM44.8309 50.6876C44.8309 52.3733 46.1988 53.7352 47.8918 53.7352C49.5849 53.7352 50.9527 52.3733 50.9527 50.6876C50.9527 49.0019 49.5849 47.64 47.8918 47.64C46.1988 47.64 44.8309 49.0019 44.8309 50.6876Z" fill="white"/>
</svg>
