<svg width="229" height="168" viewBox="0 0 229 168" fill="none" xmlns="http://www.w3.org/2000/svg">
<g filter="url(#filter0_d_1775_32795)">
<path d="M254 127.715L241.722 137.613C241.266 138.005 240.774 138.351 240.251 138.647L231.208 143.669C218.84 149.563 205.154 152.109 191.505 151.056C173.411 149.375 156.475 141.378 143.641 128.454L46.7363 30.7351L53.427 25.5648C71.8699 11.4954 93.841 2.84988 116.889 0.592551C139.938 -1.66478 163.157 2.55487 183.958 12.7808C204.759 23.0067 222.322 38.8368 234.69 58.5054C247.058 78.1739 253.743 100.907 254 124.17V127.715ZM232.384 126.017L233.046 125.647L239.149 120.699C238.422 101.176 232.55 82.1978 222.132 65.702C211.714 49.2061 197.123 35.7844 179.851 26.8082C162.579 17.832 143.245 13.623 123.823 14.6114C104.401 15.5998 85.589 21.7501 69.3082 32.4339L154.081 117.892C163.1 127.046 174.709 133.185 187.327 135.471C199.944 137.758 212.956 136.081 224.591 130.67L232.384 126.017Z" fill="#F25B38"/>
<path d="M216.825 213.721C214.034 216.523 211.096 219.178 207.717 221.98C205.807 223.528 203.824 225.077 201.914 226.478C180.812 241.883 155.362 250.124 129.27 249.999C126.993 249.999 124.495 249.999 121.924 249.999C117.444 249.999 112.816 249.188 108.336 248.524C106.132 248.524 103.855 247.713 101.652 247.197C92.8921 245.294 84.3688 242.426 76.2371 238.644C72.9317 237.022 69.773 235.399 66.6146 233.556C57.1272 228.108 48.4072 221.413 40.6858 213.648C39.2873 212.295 37.9633 210.868 36.7195 209.371C35.7946 208.502 34.9352 207.566 34.1486 206.569C33.6391 206.016 33.1725 205.424 32.753 204.8C31.8716 203.767 30.8431 202.514 29.8883 201.186L28.1255 198.753C27.4644 197.868 26.8033 196.984 26.2156 196.025L25.8485 195.435L24.0857 192.854L22.6901 190.569C21.702 189.045 20.7948 187.47 19.9723 185.85C19.2885 184.798 18.6984 183.688 18.2093 182.532C17.5483 181.426 16.667 179.73 15.859 178.034C15.051 176.338 13.9491 173.61 12.9943 171.25C5.27164 152.105 2.45561 131.321 4.80391 110.801C7.15221 90.2807 14.5897 70.6793 26.436 53.7907L28.4929 51.21C29.0805 50.2515 29.8149 49.3666 30.476 48.4818L35.6176 41.8457L41.7142 47.597L132.869 138.512C146.098 151.877 163.089 160.852 181.554 164.227C200.019 167.602 219.071 165.215 236.143 157.388L251.862 150.015L246.133 166.457C242.28 177.654 236.838 188.233 229.973 197.868L229.459 198.974L226.301 203.03C225.199 204.505 223.73 206.2 222.261 207.896C220.792 209.592 218.662 211.731 216.825 213.721ZM37.5274 185.776C37.7706 186.21 38.0406 186.629 38.3355 187.029L38.7762 187.693C39.2191 188.455 39.7357 189.171 40.3186 189.831L41.9346 192.191L44.5788 195.435L45.7541 196.91C46.3809 197.7 47.0686 198.44 47.8107 199.122C49.2063 200.744 50.2347 201.85 51.3365 202.956C58.1505 209.787 65.8311 215.688 74.1802 220.505C77.0448 222.127 79.9096 223.602 82.7742 225.003C89.83 228.259 97.2191 230.732 104.81 232.376C106.94 232.892 108.776 233.261 110.76 233.556C114.847 234.213 118.966 234.656 123.1 234.883C125.106 234.994 127.117 234.994 129.123 234.883C152.152 235.023 174.623 227.763 193.247 214.164C195.01 212.935 196.699 211.608 198.315 210.182C202.904 206.462 207.178 202.368 211.096 197.942C212.418 196.32 213.667 194.919 214.769 193.444C215.87 191.97 216.678 191.011 217.486 189.905L217.927 189.241C220.786 185.3 223.363 181.161 225.64 176.854C213.554 180.075 201.004 181.172 188.546 180.098C163.555 177.782 140.163 166.745 122.439 148.909L37.4539 63.6712C27.5243 78.4525 21.3722 95.4602 19.5404 113.193C17.7085 130.926 20.2532 148.839 26.9502 165.351C27.6353 167.377 28.47 169.349 29.4476 171.25C30.0442 172.669 30.7312 174.049 31.5042 175.379C31.8752 176.237 32.2921 177.074 32.753 177.886C33.9283 180.025 34.9565 181.647 35.9114 183.195L37.4539 184.744L37.5274 185.776Z" fill="#02272F"/>
</g>
<defs>
<filter id="filter0_d_1775_32795" x="0" y="0" width="258" height="258" filterUnits="userSpaceOnUse" color-interpolation-filters="sRGB">
<feFlood flood-opacity="0" result="BackgroundImageFix"/>
<feColorMatrix in="SourceAlpha" type="matrix" values="0 0 0 0 0 0 0 0 0 0 0 0 0 0 0 0 0 0 127 0" result="hardAlpha"/>
<feOffset dy="4"/>
<feGaussianBlur stdDeviation="2"/>
<feComposite in2="hardAlpha" operator="out"/>
<feColorMatrix type="matrix" values="0 0 0 0 0 0 0 0 0 0 0 0 0 0 0 0 0 0 0.25 0"/>
<feBlend mode="normal" in2="BackgroundImageFix" result="effect1_dropShadow_1775_32795"/>
<feBlend mode="normal" in="SourceGraphic" in2="effect1_dropShadow_1775_32795" result="shape"/>
</filter>
</defs>
</svg>
