<svg width="231" height="176" viewBox="0 0 231 176" fill="none" xmlns="http://www.w3.org/2000/svg">
<g filter="url(#filter0_d_1775_32805)">
<path d="M227 45.7154L214.722 55.6129C214.266 56.0049 213.774 56.3512 213.251 56.6469L204.208 61.6695C191.84 67.5629 178.154 70.1089 164.505 69.0557C146.411 67.375 129.475 59.3778 116.641 46.454L19.7363 -51.2649L26.427 -56.4352C44.8699 -70.5046 66.841 -79.1501 89.8894 -81.4074C112.938 -83.6648 136.157 -79.4451 156.958 -69.2192C177.759 -58.9933 195.322 -43.1632 207.69 -23.4946C220.058 -3.82613 226.743 18.9074 227 42.17V45.7154ZM205.384 44.0166L206.046 43.6473L212.149 38.6985C211.422 19.1764 205.55 0.197777 195.132 -16.298C184.714 -32.7939 170.123 -46.2156 152.851 -55.1918C135.579 -64.168 116.245 -68.377 96.8229 -67.3886C77.4013 -66.4002 58.589 -60.2499 42.3082 -49.5661L127.081 35.8918C136.1 45.0462 147.709 51.1848 160.327 53.4714C172.944 55.758 185.956 54.0813 197.591 48.6699L205.384 44.0166Z" fill="#F25B38"/>
<path d="M189.825 131.721C187.034 134.523 184.096 137.178 180.717 139.98C178.807 141.528 176.824 143.077 174.914 144.478C153.812 159.883 128.362 168.124 102.27 167.999C99.9926 167.999 97.4952 167.999 94.9244 167.999C90.4438 167.999 85.8164 167.188 81.3358 166.524C79.1322 166.524 76.8552 165.713 74.6516 165.197C65.8921 163.294 57.3688 160.426 49.2371 156.644C45.9317 155.022 42.773 153.399 39.6146 151.556C30.1272 146.108 21.4072 139.413 13.6858 131.648C12.2873 130.295 10.9633 128.868 9.71953 127.371C8.79461 126.502 7.93525 125.566 7.14864 124.569C6.63909 124.016 6.1725 123.424 5.75302 122.8C4.87159 121.767 3.84315 120.514 2.88826 119.186L1.12547 116.753C0.464399 115.868 -0.196747 114.984 -0.784367 114.025L-1.15154 113.435L-2.91433 110.854L-4.30995 108.569C-5.29803 107.045 -6.20518 105.47 -7.02766 103.85C-7.71154 102.798 -8.30161 101.688 -8.79067 100.532C-9.45175 99.4256 -10.333 97.7297 -11.141 96.0338C-11.949 94.3379 -13.0509 91.6097 -14.0057 89.2502C-21.7284 70.105 -24.5444 49.3212 -22.1961 28.8009C-19.8478 8.28067 -12.4103 -11.3207 -0.564018 -28.2093L1.49287 -30.79C2.08049 -31.7485 2.81494 -32.6334 3.47601 -33.5182L8.61756 -40.1543L14.7142 -34.403L105.869 56.512C119.098 69.8772 136.089 78.8517 154.554 82.2266C173.019 85.6016 192.071 83.2149 209.143 75.3881L224.862 68.0146L219.133 84.4574C215.28 95.6539 209.838 106.233 202.973 115.868L202.459 116.974L199.301 121.03C198.199 122.505 196.73 124.2 195.261 125.896C193.792 127.592 191.662 129.731 189.825 131.721ZM10.5274 103.776C10.7706 104.21 11.0406 104.629 11.3355 105.029L11.7762 105.693C12.2191 106.455 12.7357 107.171 13.3186 107.831L14.9346 110.191L17.5788 113.435L18.7541 114.91C19.3809 115.7 20.0686 116.44 20.8107 117.122C22.2063 118.744 23.2347 119.85 24.3365 120.956C31.1505 127.787 38.8311 133.688 47.1802 138.505C50.0448 140.127 52.9096 141.602 55.7742 143.003C62.83 146.259 70.2191 148.732 77.81 150.376C79.9401 150.892 81.7764 151.261 83.7597 151.556C87.8473 152.213 91.9661 152.656 96.0996 152.883C98.1058 152.994 100.117 152.994 102.123 152.883C125.152 153.023 147.623 145.763 166.247 132.164C168.01 130.935 169.699 129.608 171.315 128.182C175.904 124.462 180.178 120.368 184.096 115.942C185.418 114.32 186.667 112.919 187.769 111.444C188.87 109.97 189.678 109.011 190.486 107.905L190.927 107.241C193.786 103.3 196.363 99.1608 198.64 94.854C186.554 98.0747 174.004 99.1723 161.546 98.0984C136.555 95.7815 113.163 84.7452 95.4386 66.9086L10.4539 -18.3288C0.524265 -3.54752 -5.62776 13.4602 -7.45962 31.1933C-9.29147 48.9263 -6.74675 66.8394 -0.0497971 83.3514C0.635281 85.3773 1.47004 87.3491 2.44757 89.2502C3.04419 90.6694 3.73115 92.0487 4.50423 93.3793C4.87518 94.237 5.29211 95.0739 5.75302 95.8863C6.92826 98.0246 7.95655 99.6468 8.91143 101.195L10.4539 102.744L10.5274 103.776Z" fill="#02272F"/>
</g>
<defs>
<filter id="filter0_d_1775_32805" x="-27" y="-82" width="258" height="258" filterUnits="userSpaceOnUse" color-interpolation-filters="sRGB">
<feFlood flood-opacity="0" result="BackgroundImageFix"/>
<feColorMatrix in="SourceAlpha" type="matrix" values="0 0 0 0 0 0 0 0 0 0 0 0 0 0 0 0 0 0 127 0" result="hardAlpha"/>
<feOffset dy="4"/>
<feGaussianBlur stdDeviation="2"/>
<feComposite in2="hardAlpha" operator="out"/>
<feColorMatrix type="matrix" values="0 0 0 0 0 0 0 0 0 0 0 0 0 0 0 0 0 0 0.25 0"/>
<feBlend mode="normal" in2="BackgroundImageFix" result="effect1_dropShadow_1775_32805"/>
<feBlend mode="normal" in="SourceGraphic" in2="effect1_dropShadow_1775_32805" result="shape"/>
</filter>
</defs>
</svg>
