<svg width="96" height="97" viewBox="0 0 96 97" fill="none" xmlns="http://www.w3.org/2000/svg">
<circle cx="47.9987" cy="48.2507" r="47.9167" fill="#FCDED7"/>
<path d="M43.7222 49.8333L46.7778 53.5L51.0556 48L56.5556 55.3333H39.4444L43.7222 49.8333ZM59 56.5556V39.4444C59 38.0878 57.9 37 56.5556 37H39.4444C38.7961 37 38.1744 37.2575 37.716 37.716C37.2575 38.1744 37 38.7961 37 39.4444V56.5556C37 57.2039 37.2575 57.8256 37.716 58.284C38.1744 58.7425 38.7961 59 39.4444 59H56.5556C57.2039 59 57.8256 58.7425 58.284 58.284C58.7425 57.8256 59 57.2039 59 56.5556Z" fill="#02272F" fill-opacity="0.7"/>
</svg>
