<svg width="96" height="97" viewBox="0 0 96 97" fill="none" xmlns="http://www.w3.org/2000/svg">
<circle cx="47.9987" cy="48.2507" r="47.9167" fill="#FCDED7"/>
<path d="M40.85 42.5C40.4124 42.5 39.9927 42.3262 39.6833 42.0167C39.3738 41.7073 39.2 41.2876 39.2 40.85C39.2 40.4124 39.3738 39.9927 39.6833 39.6833C39.9927 39.3738 40.4124 39.2 40.85 39.2C41.2876 39.2 41.7073 39.3738 42.0167 39.6833C42.3262 39.9927 42.5 40.4124 42.5 40.85C42.5 41.2876 42.3262 41.7073 42.0167 42.0167C41.7073 42.3262 41.2876 42.5 40.85 42.5ZM58.351 47.538L48.451 37.638C48.055 37.242 47.505 37 46.9 37H39.2C37.979 37 37 37.979 37 39.2V46.9C37 47.505 37.242 48.055 37.649 48.451L47.538 58.351C47.945 58.747 48.495 59 49.1 59C49.705 59 50.255 58.747 50.651 58.351L58.351 50.651C58.758 50.255 59 49.705 59 49.1C59 48.484 58.747 47.934 58.351 47.538Z" fill="#02272F" fill-opacity="0.7"/>
</svg>
