<svg width="47" height="46" viewBox="0 0 47 46" fill="none" xmlns="http://www.w3.org/2000/svg">
<path d="M23.4998 18.2463C22.5393 18.2463 21.6003 18.5251 20.8016 19.0474C20.0029 19.5697 19.3805 20.3121 19.0129 21.1807C18.6453 22.0492 18.5491 23.0049 18.7365 23.927C18.9239 24.8491 19.3864 25.696 20.0657 26.3608C20.7449 27.0256 21.6102 27.4783 22.5523 27.6617C23.4944 27.8451 24.471 27.751 25.3584 27.3912C26.2458 27.0314 27.0044 26.4222 27.538 25.6405C28.0717 24.8588 28.3565 23.9398 28.3565 22.9997C28.3565 22.3755 28.2309 21.7574 27.9868 21.1807C27.7427 20.604 27.385 20.0799 26.934 19.6386C26.483 19.1972 25.9476 18.847 25.3584 18.6082C24.7692 18.3693 24.1376 18.2463 23.4998 18.2463ZM42.9461 13.5505C42.9358 12.0704 42.6573 10.6038 42.1236 9.21884C41.7305 8.20542 41.1223 7.2851 40.3392 6.51861C39.556 5.75212 38.6157 5.15688 37.5803 4.77217C36.1652 4.24981 34.6667 3.97726 33.1544 3.96717C30.6282 3.83301 29.884 3.83301 23.4998 3.83301C17.1157 3.83301 16.3715 3.83301 13.8453 3.96717C12.3329 3.97726 10.8345 4.24981 9.41942 4.77217C8.38397 5.15688 7.44365 5.75212 6.66049 6.51861C5.87734 7.2851 5.26916 8.20542 4.87609 9.21884C4.34237 10.6038 4.06389 12.0704 4.05359 13.5505C3.9165 16.023 3.9165 16.7513 3.9165 22.9997C3.9165 29.248 3.9165 29.9763 4.05359 32.4488C4.07467 33.9342 4.35277 35.4053 4.87609 36.7997C5.26742 37.8085 5.87509 38.7234 6.65817 39.483C7.43797 40.2541 8.38031 40.8493 9.41942 41.2272C10.8345 41.7495 12.3329 42.0221 13.8453 42.0322C16.3715 42.1663 17.1157 42.1663 23.4998 42.1663C29.884 42.1663 30.6282 42.1663 33.1544 42.0322C34.6667 42.0221 36.1652 41.7495 37.5803 41.2272C38.6194 40.8493 39.5617 40.2541 40.3415 39.483C41.1246 38.7234 41.7323 37.8085 42.1236 36.7997C42.6568 35.408 42.9352 33.9352 42.9461 32.4488C43.0832 29.9763 43.0832 29.248 43.0832 22.9997C43.0832 16.7513 43.0832 16.023 42.9461 13.5505ZM37.9719 28.8838C37.9091 30.0666 37.6512 31.2317 37.2082 32.3338C36.828 33.2532 36.2628 34.0884 35.5462 34.7898C34.8297 35.4911 33.9763 36.0443 33.0369 36.4163C31.9001 36.8257 30.7031 37.0523 29.4923 37.0872C27.9453 37.0872 27.534 37.0872 23.4998 37.0872C19.4657 37.0872 19.0544 37.0872 17.5073 37.0872C16.2966 37.0523 15.0995 36.8257 13.9628 36.4163C12.9916 36.0631 12.1146 35.4996 11.3973 34.768C10.6878 34.0804 10.1398 33.2498 9.7915 32.3338C9.37155 31.2224 9.14644 30.0495 9.12567 28.8647C9.12567 27.3505 9.12567 26.948 9.12567 22.9997C9.12567 19.0513 9.12567 18.6488 9.12567 17.1347C9.14644 15.9498 9.37155 14.777 9.7915 13.6655C10.1524 12.715 10.7281 11.8567 11.4757 11.1547C12.1813 10.464 13.0291 9.92819 13.9628 9.58301C15.0995 9.17362 16.2966 8.94708 17.5073 8.91217C19.0544 8.91217 19.4657 8.91217 23.4998 8.91217C27.534 8.91217 27.9453 8.91217 29.4923 8.91217C30.7031 8.94708 31.9001 9.17362 33.0369 9.58301C34.0081 9.93621 34.885 10.4997 35.6023 11.2313C36.3119 11.9189 36.8599 12.7496 37.2082 13.6655C37.6265 14.7781 37.8579 15.9497 37.8936 17.1347C37.8936 18.6488 37.8936 19.0513 37.8936 22.9997C37.8936 26.948 38.0307 27.3505 37.9719 28.8647V28.8838ZM34.8386 14.6238C34.6054 14.0047 34.2378 13.4425 33.7611 12.9759C33.2844 12.5093 32.7099 12.1495 32.0773 11.9213C31.2088 11.6267 30.294 11.4839 29.3748 11.4997C27.8473 11.4997 27.4165 11.4997 23.4998 11.4997C19.5832 11.4997 19.1523 11.4997 17.6248 11.4997C16.701 11.5085 15.7861 11.6772 14.9223 11.998C14.2994 12.2158 13.7311 12.561 13.255 13.0104C12.7789 13.4598 12.406 14.0033 12.1611 14.6047C11.8767 15.4583 11.7378 16.3519 11.7498 17.2497C11.7498 18.7447 11.7498 19.1663 11.7498 22.9997C11.7498 26.833 11.7498 27.2547 11.7498 28.7497C11.7693 29.6528 11.9413 30.5466 12.259 31.3947C12.4922 32.0138 12.8598 32.576 13.3365 33.0426C13.8132 33.5092 14.3877 33.869 15.0203 34.0972C15.8558 34.3979 16.7351 34.5662 17.6248 34.5955C19.1523 34.5955 19.5832 34.5955 23.4998 34.5955C27.4165 34.5955 27.8473 34.5955 29.3748 34.5955C30.2986 34.5867 31.2136 34.418 32.0773 34.0972C32.7099 33.869 33.2844 33.5092 33.7611 33.0426C34.2378 32.576 34.6054 32.0138 34.8386 31.3947C35.1663 30.5493 35.3387 29.6538 35.3478 28.7497C35.3478 27.2547 35.3478 26.833 35.3478 22.9997C35.3478 19.1663 35.3478 18.7447 35.3478 17.2497C35.3483 16.3446 35.1756 15.4475 34.8386 14.6047V14.6238ZM23.4998 30.3213C22.5184 30.3213 21.5465 30.1318 20.64 29.7636C19.7335 29.3955 18.9101 28.8558 18.217 28.1757C17.5239 27.4956 16.9747 26.6883 16.6009 25.8001C16.2271 24.9119 16.036 23.9603 16.0386 22.9997C16.0386 21.5508 16.4778 20.1344 17.3007 18.93C18.1236 17.7255 19.2931 16.7871 20.6612 16.2335C22.0293 15.6799 23.5344 15.5361 24.9861 15.8201C26.4377 16.1042 27.7707 16.8034 28.8161 17.8293C29.8615 18.8552 30.5725 20.1615 30.8589 21.5831C31.1453 23.0046 30.9944 24.4773 30.4252 25.8149C29.856 27.1524 28.8941 28.2945 27.6613 29.0967C26.4285 29.899 24.9802 30.3251 23.4998 30.3213ZM31.3332 17.1155C30.9003 17.0707 30.4996 16.8706 30.2085 16.5539C29.9173 16.2371 29.7562 15.8262 29.7562 15.4001C29.7562 14.974 29.9173 14.563 30.2085 14.2463C30.4996 13.9296 30.9003 13.7295 31.3332 13.6847C31.7661 13.7295 32.1667 13.9296 32.4579 14.2463C32.749 14.563 32.9101 14.974 32.9101 15.4001C32.9101 15.8262 32.749 16.2371 32.4579 16.5539C32.1667 16.8706 31.7661 17.0707 31.3332 17.1155Z" fill="url(#paint0_linear_1734_21114)"/>
<defs>
<linearGradient id="paint0_linear_1734_21114" x1="41.1248" y1="5.89352" x2="6.94121" y2="39.9683" gradientUnits="userSpaceOnUse">
<stop stop-color="#4F5BD5"/>
<stop offset="0.234375" stop-color="#962FBF"/>
<stop offset="0.484375" stop-color="#D62976"/>
<stop offset="0.739583" stop-color="#FA7E1E"/>
<stop offset="1" stop-color="#FEDA75"/>
</linearGradient>
</defs>
</svg>
