<svg width="21" height="21" viewBox="0 0 21 21" fill="none" xmlns="http://www.w3.org/2000/svg">
<path d="M0.888184 9.77658L5.88818 0.388245L10.8882 9.77658H0.888184ZM5.88818 20.2081C4.78818 20.2081 3.84652 19.7995 3.06318 18.9824C2.27985 18.1652 1.88818 17.1829 1.88818 16.0355C1.88818 14.8706 2.27985 13.8838 3.06318 13.075C3.84652 12.2669 4.78818 11.8629 5.88818 11.8629C6.98818 11.8629 7.92985 12.2714 8.71318 13.0886C9.49652 13.9057 9.88818 14.888 9.88818 16.0355C9.88818 17.1829 9.49652 18.1652 8.71318 18.9824C7.92985 19.7995 6.98818 20.2081 5.88818 20.2081ZM5.88818 18.1218C6.43818 18.1218 6.90885 17.9177 7.30018 17.5094C7.69218 17.1005 7.88818 16.6092 7.88818 16.0355C7.88818 15.4617 7.69218 14.9708 7.30018 14.5625C6.90885 14.1536 6.43818 13.9492 5.88818 13.9492C5.33818 13.9492 4.86752 14.1536 4.47618 14.5625C4.08418 14.9708 3.88818 15.4617 3.88818 16.0355C3.88818 16.6092 4.08418 17.1005 4.47618 17.5094C4.86752 17.9177 5.33818 18.1218 5.88818 18.1218ZM4.28818 7.69028H7.48818L5.88818 4.69123L4.28818 7.69028ZM11.8882 20.2081V11.8629H19.8882V20.2081H11.8882ZM13.8882 18.1218H17.8882V13.9492H13.8882V18.1218ZM15.8882 9.77658C14.9382 8.94206 14.1425 8.23794 13.5012 7.6642C12.8592 7.09047 12.3465 6.58628 11.9632 6.15164C11.5799 5.71699 11.3049 5.30843 11.1382 4.92594C10.9715 4.54345 10.8882 4.13489 10.8882 3.70024C10.8882 2.91788 11.1509 2.25722 11.6762 1.71826C12.2009 1.1793 12.8548 0.909819 13.6382 0.909819C14.0882 0.909819 14.5092 1.01831 14.9012 1.23528C15.2925 1.45295 15.6215 1.75303 15.8882 2.13552C16.1549 1.75303 16.4842 1.45295 16.8762 1.23528C17.2675 1.01831 17.6882 0.909819 18.1382 0.909819C18.9215 0.909819 19.5755 1.1793 20.1002 1.71826C20.6255 2.25722 20.8882 2.91788 20.8882 3.70024C20.8882 4.13489 20.8048 4.54345 20.6382 4.92594C20.4715 5.30843 20.1965 5.71699 19.8132 6.15164C19.4298 6.58628 18.9175 7.09047 18.2762 7.6642C17.6342 8.23794 16.8382 8.94206 15.8882 9.77658ZM15.8882 7.03831C17.0882 5.99517 17.8882 5.25627 18.2882 4.82162C18.6882 4.38698 18.8882 4.03057 18.8882 3.7524C18.8882 3.52638 18.8255 3.34383 18.7002 3.20474C18.5755 3.06566 18.4049 2.99611 18.1882 2.99611C18.0215 2.99611 17.8589 3.04375 17.7002 3.13903C17.5422 3.235 17.3465 3.40468 17.1132 3.64808L15.8882 4.87378L14.6632 3.64808C14.4298 3.40468 14.2342 3.235 14.0762 3.13903C13.9175 3.04375 13.7549 2.99611 13.5882 2.99611C13.3715 2.99611 13.2008 3.06566 13.0762 3.20474C12.9508 3.34383 12.8882 3.52638 12.8882 3.7524C12.8882 4.03057 13.0882 4.38698 13.4882 4.82162C13.8882 5.25627 14.6882 5.99517 15.8882 7.03831Z" fill="#F25B38"/>
</svg>
