<svg width="47" height="47" viewBox="0 0 47 47" fill="none" xmlns="http://www.w3.org/2000/svg">
<path d="M40.0871 3.91629H6.91293C6.54002 3.91111 6.16974 3.97944 5.82325 4.11738C5.47675 4.25532 5.16082 4.46016 4.89349 4.72021C4.62617 4.98026 4.41269 5.29042 4.26525 5.63298C4.11781 5.97555 4.03929 6.3438 4.03418 6.71671V40.2825C4.03929 40.6554 4.11781 41.0237 4.26525 41.3663C4.41269 41.7088 4.62617 42.019 4.89349 42.279C5.16082 42.5391 5.47675 42.7439 5.82325 42.8819C6.16974 43.0198 6.54002 43.0881 6.91293 43.083H40.0871C40.46 43.0881 40.8303 43.0198 41.1768 42.8819C41.5233 42.7439 41.8392 42.5391 42.1065 42.279C42.3739 42.019 42.5873 41.7088 42.7348 41.3663C42.8822 41.0237 42.9607 40.6554 42.9659 40.2825V6.71671C42.9607 6.3438 42.8822 5.97555 42.7348 5.63298C42.5873 5.29042 42.3739 4.98026 42.1065 4.72021C41.8392 4.46016 41.5233 4.25532 41.1768 4.11738C40.8303 3.97944 40.46 3.91111 40.0871 3.91629ZM15.8429 36.6988H9.96793V19.0738H15.8429V36.6988ZM12.9054 16.6063C12.0952 16.6063 11.3181 16.2844 10.7452 15.7115C10.1723 15.1386 9.85043 14.3615 9.85043 13.5513C9.85043 12.7411 10.1723 11.964 10.7452 11.3911C11.3181 10.8182 12.0952 10.4963 12.9054 10.4963C13.3357 10.4475 13.7714 10.4901 14.184 10.6214C14.5966 10.7527 14.9768 10.9696 15.2998 11.258C15.6228 11.5464 15.8812 11.8998 16.0581 12.295C16.235 12.6902 16.3265 13.1183 16.3265 13.5513C16.3265 13.9843 16.235 14.4124 16.0581 14.8076C15.8812 15.2028 15.6228 15.5562 15.2998 15.8446C14.9768 16.133 14.5966 16.3499 14.184 16.4812C13.7714 16.6124 13.3357 16.6551 12.9054 16.6063ZM37.0321 36.6988H31.1571V27.24C31.1571 24.8705 30.315 23.3234 28.1804 23.3234C27.5198 23.3282 26.8766 23.5354 26.3373 23.9171C25.7981 24.2987 25.3888 24.8365 25.1646 25.458C25.0113 25.9182 24.9449 26.403 24.9688 26.8875V36.6792H19.0938C19.0938 36.6792 19.0938 20.66 19.0938 19.0542H24.9688V21.5413C25.5025 20.6152 26.2787 19.8523 27.2139 19.3346C28.149 18.817 29.2077 18.5643 30.2758 18.6038C34.1925 18.6038 37.0321 21.13 37.0321 26.5546V36.6988Z" fill="#0072B1"/>
</svg>
