<svg width="36" height="36" viewBox="0 0 36 36" fill="none" xmlns="http://www.w3.org/2000/svg">
<mask id="mask0_2295_25176" style="mask-type:alpha" maskUnits="userSpaceOnUse" x="0" y="0" width="36" height="36">
<rect width="36" height="36" fill="#D9D9D9"/>
</mask>
<g mask="url(#mask0_2295_25176)">
<path d="M7.0128 33.0003C6.3378 33.0003 5.7501 32.7501 5.2497 32.2497C4.7499 31.7499 4.5 31.1625 4.5 30.4875V11.25C4.5 10.575 4.7499 9.98761 5.2497 9.4878C5.7501 8.9874 6.3378 8.73721 7.0128 8.73721H10.7622C10.7622 6.73741 11.4435 5.0313 12.8061 3.61891C14.1687 2.20651 15.8625 1.50031 17.8875 1.50031C19.8873 1.50031 21.6123 2.20651 23.0625 3.61891C24.5127 5.0313 25.2378 6.73741 25.2378 8.73721H28.9872C29.6622 8.73721 30.2499 8.9874 30.7503 9.4878C31.2501 9.98761 31.5 10.575 31.5 11.25V30.4875C31.5 31.1625 31.2501 31.7499 30.7503 32.2497C30.2499 32.7501 29.6622 33.0003 28.9872 33.0003H7.0128ZM7.0128 30.4875H28.9872V11.25H7.0128V30.4875ZM18 20.25C19.9998 20.25 21.7311 19.5249 23.1939 18.0747C24.6561 16.6251 25.3872 14.8878 25.3872 12.8628H22.8753C22.8753 14.2128 22.3938 15.3627 21.4308 16.3125C20.4684 17.2623 19.3248 17.7372 18 17.7372C16.6752 17.7372 15.5316 17.2623 14.5692 16.3125C13.6062 15.3627 13.1247 14.2128 13.1247 12.8628H10.6128C10.6128 14.8878 11.3439 16.6251 12.8061 18.0747C14.2689 19.5249 16.0002 20.25 18 20.25ZM13.2372 8.73721H22.7628C22.7628 7.41241 22.3002 6.29371 21.375 5.38111C20.4498 4.46851 19.3248 4.01221 18 4.01221C16.6752 4.01221 15.5502 4.46851 14.625 5.38111C13.6998 6.29371 13.2372 7.41241 13.2372 8.73721Z" fill="white"/>
</g>
</svg>
