<svg width="37" height="37" viewBox="0 0 37 37" fill="none" xmlns="http://www.w3.org/2000/svg">
<mask id="mask0_2295_25160" style="mask-type:alpha" maskUnits="userSpaceOnUse" x="0" y="0" width="37" height="37">
<rect x="0.613281" y="0.369598" width="36" height="36" fill="#D9D9D9"/>
</mask>
<g mask="url(#mask0_2295_25160)">
<path d="M9.61328 30.3696C8.36328 30.3696 7.30078 29.9321 6.42578 29.0571C5.55078 28.1821 5.11328 27.1196 5.11328 25.8696H2.11328V9.3696C2.11328 8.5446 2.40703 7.83835 2.99453 7.25085C3.58203 6.66335 4.28828 6.3696 5.11328 6.3696H26.1133V12.3696H30.6133L35.1133 18.3696V25.8696H32.1133C32.1133 27.1196 31.6758 28.1821 30.8008 29.0571C29.9258 29.9321 28.8633 30.3696 27.6133 30.3696C26.3633 30.3696 25.3008 29.9321 24.4258 29.0571C23.5508 28.1821 23.1133 27.1196 23.1133 25.8696H14.1133C14.1133 27.1196 13.6758 28.1821 12.8008 29.0571C11.9258 29.9321 10.8633 30.3696 9.61328 30.3696ZM9.61328 27.3696C10.0383 27.3696 10.3945 27.2258 10.682 26.9383C10.9695 26.6508 11.1133 26.2946 11.1133 25.8696C11.1133 25.4446 10.9695 25.0883 10.682 24.8008C10.3945 24.5133 10.0383 24.3696 9.61328 24.3696C9.18828 24.3696 8.83203 24.5133 8.54453 24.8008C8.25703 25.0883 8.11328 25.4446 8.11328 25.8696C8.11328 26.2946 8.25703 26.6508 8.54453 26.9383C8.83203 27.2258 9.18828 27.3696 9.61328 27.3696ZM5.11328 22.8696H6.31328C6.73828 22.4196 7.22578 22.0571 7.77578 21.7821C8.32578 21.5071 8.93828 21.3696 9.61328 21.3696C10.2883 21.3696 10.9008 21.5071 11.4508 21.7821C12.0008 22.0571 12.4883 22.4196 12.9133 22.8696H23.1133V9.3696H5.11328V22.8696ZM27.6133 27.3696C28.0383 27.3696 28.3945 27.2258 28.682 26.9383C28.9695 26.6508 29.1133 26.2946 29.1133 25.8696C29.1133 25.4446 28.9695 25.0883 28.682 24.8008C28.3945 24.5133 28.0383 24.3696 27.6133 24.3696C27.1883 24.3696 26.832 24.5133 26.5445 24.8008C26.257 25.0883 26.1133 25.4446 26.1133 25.8696C26.1133 26.2946 26.257 26.6508 26.5445 26.9383C26.832 27.2258 27.1883 27.3696 27.6133 27.3696ZM26.1133 19.8696H32.4883L29.1133 15.3696H26.1133V19.8696Z" fill="white"/>
</g>
</svg>
