<svg width="166" height="48" viewBox="0 0 166 48" fill="none" xmlns="http://www.w3.org/2000/svg">
<path d="M104.045 24.0004C101.613 24.0004 99.2363 23.2985 97.2144 21.9836C95.1924 20.6687 93.6165 18.7998 92.6859 16.6133C91.7553 14.4267 91.5118 12.0206 91.9863 9.69933C92.4607 7.37806 93.6317 5.24583 95.3512 3.57229C97.0707 1.89875 99.2615 0.75905 101.647 0.297321C104.032 -0.164409 106.504 0.0725676 108.75 0.978283C110.997 1.884 112.917 3.41777 114.268 5.38565C115.619 7.35353 116.34 9.66713 116.34 12.0339C116.33 15.2045 115.031 18.2423 112.728 20.4843C110.424 22.7262 107.303 23.9902 104.045 24.0004ZM104.045 4.08183C102.429 4.08183 100.85 4.54821 99.5059 5.42199C98.1623 6.29577 97.1151 7.53771 96.4967 8.99076C95.8783 10.4438 95.7165 12.0427 96.0317 13.5852C96.347 15.1278 97.1251 16.5447 98.2678 17.6568C99.4105 18.7689 100.866 19.5263 102.451 19.8331C104.036 20.14 105.679 19.9825 107.172 19.3806C108.665 18.7787 109.941 17.7595 110.839 16.4518C111.736 15.1441 112.216 13.6066 112.216 12.0339C112.216 9.92486 111.355 7.90223 109.823 6.41093C108.29 4.91963 106.212 4.08183 104.045 4.08183Z" fill="white"/>
<path d="M23.1695 0.739868C22.4596 0.700696 21.748 0.700696 21.038 0.739868C16.3564 1.1745 11.9208 2.98312 8.31897 5.92616C4.7171 8.8692 2.11885 12.8078 0.868391 17.2202C0.288708 19.2071 -0.0035554 21.2629 3.26382e-05 23.3283H4.26289C4.26201 21.2484 4.62232 19.1833 5.3286 17.2202H21.117V23.3667H25.3798V0.739868C24.6437 0.69869 23.9057 0.69869 23.1695 0.739868ZM21.038 13.1097H7.36136C8.89676 10.8706 10.9163 8.98497 13.2787 7.58486C15.6411 6.18474 18.2893 5.30391 21.038 5.00401V13.1097Z" fill="white"/>
<path d="M41.1288 13.6278L44.9377 11.707L48.8848 9.78623C47.9985 8.63895 47.0077 7.5718 45.9245 6.59773C42.1725 3.22636 37.375 1.16538 32.2873 0.73934C31.5774 0.700168 30.8658 0.700168 30.1558 0.73934C29.4459 0.701052 28.7343 0.701052 28.0244 0.73934V23.2893H32.2873V18.0264L37.1422 15.6446L45.0364 23.4238H45.1943L49.023 21.503L41.1288 13.6278ZM33.9648 12.4945L32.2873 13.3397V4.94586C35.7418 5.35431 39.0133 6.68374 41.7406 8.78743L37.9711 10.7082L33.9648 12.4945Z" fill="white"/>
<path d="M91.0389 15.5679C90.6256 16.8496 89.9989 18.0565 89.1838 19.1406C87.8856 20.84 86.1465 22.173 84.1449 23.0032C82.1432 23.8333 79.9507 24.1307 77.7921 23.8649C75.6335 23.5991 73.5862 22.7797 71.86 21.4905C70.1338 20.2014 68.7906 18.4889 67.9682 16.5283H72.606C73.3085 17.5267 74.2358 18.3558 75.3173 18.9526C76.3988 19.5494 77.606 19.8982 78.8469 19.9723C80.0878 20.0464 81.3297 19.8439 82.4781 19.3802C83.6264 18.9165 84.6509 18.2039 85.4735 17.2966L83.9144 16.5283L71.3035 10.3434L67.5537 8.4226C67.625 8.15985 67.7174 7.90295 67.83 7.65429C68.2175 6.65158 68.749 5.7074 69.4089 4.84995C70.7182 3.12724 72.4788 1.77832 74.5068 0.944093C76.5348 0.109865 78.7557 -0.179066 80.9376 0.107479C83.1196 0.394025 85.1824 1.24553 86.9107 2.57306C88.6389 3.90059 89.9692 5.65543 90.7626 7.65429H86.1643C85.4833 6.61917 84.5646 5.7522 83.4805 5.12177C82.3964 4.49135 81.1767 4.11472 79.9174 4.02159C78.6582 3.92846 77.394 4.12139 76.2244 4.58514C75.0549 5.0489 74.0121 5.7708 73.1783 6.6939L75.1519 7.65429L87.3286 13.6279L91.0389 15.5679Z" fill="white"/>
<path d="M67.1792 0.701172H49.2988V4.85007H56.1076V23.3664H60.3704V4.85007H67.1792V0.701172Z" fill="white"/>
<path d="M140.99 0.701172V23.3664H136.431L123.149 8.07698V23.3664H119.202V0.701172H121.926L137.043 18.1035V0.701172H140.99Z" fill="white"/>
<path d="M165.043 0.69873L155.86 12.04L155.436 12.5611V23.361H151.455V12.5481L151.031 12.04L141.865 0.701326H146.694L151.455 6.75088L153.445 9.14793L155.436 6.76392L160.214 0.69873H165.043Z" fill="white"/>
</svg>
