<svg width="2036" height="296" viewBox="0 0 2036 296" fill="none" xmlns="http://www.w3.org/2000/svg">
<path d="M1283.22 296C1253.22 296 1223.91 287.345 1198.97 271.128C1174.03 254.911 1154.6 231.861 1143.12 204.893C1131.64 177.925 1128.64 148.251 1134.49 119.622C1140.34 90.9932 1154.78 64.696 1175.99 44.0558C1197.2 23.4155 1224.22 9.35937 1253.63 3.66474C1283.05 -2.02988 1313.54 0.892802 1341.25 12.0632C1368.95 23.2336 1392.64 42.1501 1409.3 66.4204C1425.96 90.6907 1434.86 119.225 1434.86 148.415C1434.73 187.518 1418.71 224.985 1390.3 252.635C1361.89 280.286 1323.39 295.875 1283.22 296ZM1283.22 50.34C1263.29 50.34 1243.8 56.092 1227.23 66.8686C1210.66 77.6451 1197.74 92.9623 1190.12 110.883C1182.49 128.804 1180.49 148.523 1184.38 167.548C1188.27 186.573 1197.87 204.048 1211.96 217.764C1226.05 231.48 1244.01 240.82 1263.56 244.605C1283.1 248.389 1303.37 246.447 1321.78 239.024C1340.19 231.601 1355.93 219.03 1367 202.902C1378.07 186.774 1383.98 167.812 1383.98 148.415C1383.98 122.404 1373.37 97.4579 1354.47 79.0654C1335.57 60.6728 1309.94 50.34 1283.22 50.34Z" fill="#F25B38"/>
<path d="M285.755 9.12284C276.999 8.63973 268.223 8.63973 259.467 9.12284C201.727 14.4832 147.023 36.7894 102.6 73.0867C58.1771 109.384 26.1323 157.959 10.7101 212.379C3.56071 236.883 -0.0438496 262.238 0.000402535 287.712H52.5753C52.5645 262.059 57.0082 236.59 65.719 212.379H260.441V288.185H313.016V9.12284C303.936 8.61498 294.834 8.61498 285.755 9.12284ZM259.467 161.683H90.7895C109.726 134.067 134.633 110.812 163.77 93.5438C192.906 76.2758 225.567 65.4124 259.467 61.7136V161.683Z" fill="#F25B38"/>
<path d="M507.251 168.075L554.228 144.385L602.909 120.696C591.978 106.546 579.758 93.3846 566.398 81.3712C520.125 39.7913 460.955 14.3727 398.207 9.1182C389.452 8.63508 380.675 8.63508 371.92 9.1182C363.164 8.64599 354.388 8.64599 345.632 9.1182V287.233H398.207V222.324L458.084 192.949L555.445 288.891H557.392L604.612 265.202L507.251 168.075ZM418.896 154.098L398.207 164.521V60.9982C440.813 66.0358 481.16 82.432 514.797 108.377L468.307 132.067L418.896 154.098Z" fill="#F25B38"/>
<path d="M1122.81 192.003C1117.71 207.81 1109.98 222.696 1099.93 236.066C1083.91 257.025 1062.47 273.466 1037.78 283.704C1013.09 293.942 986.052 297.61 959.429 294.332C932.807 291.054 907.557 280.948 886.267 265.048C864.978 249.149 848.412 228.028 838.268 203.848H895.468C904.132 216.161 915.569 226.387 928.907 233.747C942.246 241.108 957.134 245.409 972.438 246.323C987.743 247.237 1003.06 244.739 1017.22 239.021C1031.39 233.302 1044.02 224.513 1054.17 213.324L1034.94 203.848L879.404 127.568L833.157 103.878C834.036 100.637 835.175 97.4691 836.565 94.4023C841.343 82.0356 847.899 70.3908 856.037 59.8156C872.185 38.569 893.9 21.9325 918.911 11.6437C943.923 1.35499 971.314 -2.20847 998.224 1.32557C1025.13 4.85961 1050.58 15.3615 1071.89 31.7342C1093.21 48.107 1109.61 69.7499 1119.4 94.4023H1062.69C1054.29 81.6359 1042.96 70.9433 1029.59 63.1681C1016.22 55.3929 1001.17 50.7478 985.642 49.5993C970.111 48.4507 954.519 50.8301 940.095 56.5497C925.671 62.2693 912.81 71.1727 902.527 82.5575L926.867 94.4023L1077.05 168.077L1122.81 192.003Z" fill="#F25B38"/>
<path d="M828.538 8.64966H608.015V59.819H691.989V288.186H744.564V59.819H828.538V8.64966Z" fill="#F25B38"/>
<path d="M1738.87 8.64966V288.186H1682.64L1518.83 99.6174V288.186H1470.15V8.64966H1503.74L1690.19 223.277V8.64966H1738.87Z" fill="#F25B38"/>
<path d="M2035.52 8.61865L1922.26 148.493L1917.03 154.92V288.118H1867.93V154.76L1862.7 148.493L1749.66 8.65066H1809.21L1867.93 83.2614L1892.48 112.825L1917.03 83.4222L1975.97 8.61865H2035.52Z" fill="#F25B38"/>
</svg>
