<svg width="24" height="24" viewBox="0 0 24 24" fill="none" xmlns="http://www.w3.org/2000/svg">
<path d="M12 11.4C11.2422 11.4 10.5155 11.0839 9.9797 10.5213C9.44388 9.95871 9.14286 9.19565 9.14286 8.4C9.14286 7.60435 9.44388 6.84129 9.9797 6.27868C10.5155 5.71607 11.2422 5.4 12 5.4C12.7578 5.4 13.4845 5.71607 14.0203 6.27868C14.5561 6.84129 14.8571 7.60435 14.8571 8.4C14.8571 8.79397 14.7832 9.18407 14.6397 9.54805C14.4961 9.91203 14.2856 10.2427 14.0203 10.5213C13.755 10.7999 13.44 11.0209 13.0934 11.1716C12.7467 11.3224 12.3752 11.4 12 11.4ZM12 0C9.87827 0 7.84344 0.884997 6.34315 2.4603C4.84285 4.03561 4 6.17218 4 8.4C4 14.7 12 24 12 24C12 24 20 14.7 20 8.4C20 6.17218 19.1571 4.03561 17.6569 2.4603C16.1566 0.884997 14.1217 0 12 0Z" fill="#8AC5C7"/>
</svg>
