<svg width="22" height="22" viewBox="0 0 22 22" fill="none" xmlns="http://www.w3.org/2000/svg">
<path d="M14.85 9.9C15.3083 9.9 15.6977 9.7394 16.0182 9.4182C16.3394 9.09773 16.5 8.70833 16.5 8.25C16.5 7.79167 16.3394 7.40227 16.0182 7.0818C15.6977 6.7606 15.3083 6.6 14.85 6.6C14.3917 6.6 14.0023 6.7606 13.6818 7.0818C13.3606 7.40227 13.2 7.79167 13.2 8.25C13.2 8.70833 13.3606 9.09773 13.6818 9.4182C14.0023 9.7394 14.3917 9.9 14.85 9.9ZM7.15 9.9C7.60833 9.9 7.99773 9.7394 8.3182 9.4182C8.6394 9.09773 8.8 8.70833 8.8 8.25C8.8 7.79167 8.6394 7.40227 8.3182 7.0818C7.99773 6.7606 7.60833 6.6 7.15 6.6C6.69167 6.6 6.30227 6.7606 5.9818 7.0818C5.6606 7.40227 5.5 7.79167 5.5 8.25C5.5 8.70833 5.6606 9.09773 5.9818 9.4182C6.30227 9.7394 6.69167 9.9 7.15 9.9ZM11 17.05C12.2467 17.05 13.3789 16.6973 14.3968 15.9918C15.4139 15.2856 16.1517 14.355 16.61 13.2H5.39C5.84833 14.355 6.58643 15.2856 7.6043 15.9918C8.62143 16.6973 9.75333 17.05 11 17.05ZM11 22C9.47833 22 8.04833 21.7111 6.71 21.1332C5.37167 20.5561 4.2075 19.7725 3.2175 18.7825C2.2275 17.7925 1.44393 16.6283 0.8668 15.29C0.288933 13.9517 0 12.5217 0 11C0 9.47833 0.288933 8.04833 0.8668 6.71C1.44393 5.37167 2.2275 4.2075 3.2175 3.2175C4.2075 2.2275 5.37167 1.44357 6.71 0.8657C8.04833 0.288567 9.47833 0 11 0C12.5217 0 13.9517 0.288567 15.29 0.8657C16.6283 1.44357 17.7925 2.2275 18.7825 3.2175C19.7725 4.2075 20.5561 5.37167 21.1332 6.71C21.7111 8.04833 22 9.47833 22 11C22 12.5217 21.7111 13.9517 21.1332 15.29C20.5561 16.6283 19.7725 17.7925 18.7825 18.7825C17.7925 19.7725 16.6283 20.5561 15.29 21.1332C13.9517 21.7111 12.5217 22 11 22ZM11 19.8C13.4567 19.8 15.5375 18.9475 17.2425 17.2425C18.9475 15.5375 19.8 13.4567 19.8 11C19.8 8.54333 18.9475 6.4625 17.2425 4.7575C15.5375 3.0525 13.4567 2.2 11 2.2C8.54333 2.2 6.4625 3.0525 4.7575 4.7575C3.0525 6.4625 2.2 8.54333 2.2 11C2.2 13.4567 3.0525 15.5375 4.7575 17.2425C6.4625 18.9475 8.54333 19.8 11 19.8Z" fill="white"/>
</svg>
