<svg width="36" height="36" viewBox="0 0 36 36" fill="none" xmlns="http://www.w3.org/2000/svg">
<mask id="mask0_2295_25170" style="mask-type:alpha" maskUnits="userSpaceOnUse" x="0" y="0" width="36" height="36">
<rect width="36" height="36" fill="#D9D9D9"/>
</mask>
<g mask="url(#mask0_2295_25170)">
<path d="M6 28.5003V25.9875H9.1122V14.85C9.1122 12.75 9.7311 10.8876 10.9689 9.26279C12.2061 7.63739 13.8372 6.59969 15.8622 6.14969V5.06249C15.8622 4.48769 16.0683 4.00019 16.4805 3.59999C16.8933 3.19979 17.3997 2.99969 17.9997 2.99969C18.5997 2.99969 19.1061 3.19979 19.5189 3.59999C19.9311 4.00019 20.1372 4.48769 20.1372 5.06249V6.14969C22.1622 6.59969 23.7996 7.63739 25.0494 9.26279C26.2998 10.8876 26.925 12.75 26.925 14.85V25.9875H29.9994V28.5003H6ZM17.9997 33.0003C17.1999 33.0003 16.5 32.7066 15.9 32.1192C15.3 31.5312 15 30.8247 15 29.9997H20.9994C20.9994 30.8247 20.7057 31.5312 20.1183 32.1192C19.5309 32.7066 18.8247 33.0003 17.9997 33.0003ZM11.5872 25.9875H24.4122V14.85C24.4122 13.0752 23.7933 11.5566 22.5555 10.2942C21.3183 9.03119 19.8123 8.39969 18.0375 8.39969C16.2375 8.39969 14.7123 9.03119 13.4619 10.2942C12.2121 11.5566 11.5872 13.0752 11.5872 14.85V25.9875Z" fill="white"/>
</g>
</svg>
