<svg width="23" height="21" viewBox="0 0 23 21" fill="none" xmlns="http://www.w3.org/2000/svg">
<path d="M11.7137 16.7888C13.1025 16.7888 14.2833 16.3029 15.2559 15.3311C16.2277 14.3585 16.7137 13.1777 16.7137 11.7888C16.7137 10.4 16.2277 9.21922 15.2559 8.24662C14.2833 7.27477 13.1025 6.78885 11.7137 6.78885C10.3248 6.78885 9.14402 7.27477 8.17143 8.24662C7.19958 9.21922 6.71365 10.4 6.71365 11.7888C6.71365 13.1777 7.19958 14.3585 8.17143 15.3311C9.14402 16.3029 10.3248 16.7888 11.7137 16.7888ZM11.7137 14.5666C10.9359 14.5666 10.2785 14.2981 9.74143 13.7611C9.20439 13.224 8.93587 12.5666 8.93587 11.7888C8.93587 11.0111 9.20439 10.3537 9.74143 9.81662C10.2785 9.27959 10.9359 9.01107 11.7137 9.01107C12.4914 9.01107 13.1488 9.27959 13.6859 9.81662C14.2229 10.3537 14.4914 11.0111 14.4914 11.7888C14.4914 12.5666 14.2229 13.224 13.6859 13.7611C13.1488 14.2981 12.4914 14.5666 11.7137 14.5666ZM2.82476 20.6777C2.21365 20.6777 1.69069 20.4603 1.25587 20.0255C0.820317 19.59 0.602539 19.0666 0.602539 18.4555V5.12218C0.602539 4.51107 0.820317 3.9881 1.25587 3.55329C1.69069 3.11773 2.21365 2.89996 2.82476 2.89996H6.32476L8.38032 0.677734H15.047L17.1025 2.89996H20.6025C21.2137 2.89996 21.737 3.11773 22.1725 3.55329C22.6074 3.9881 22.8248 4.51107 22.8248 5.12218V18.4555C22.8248 19.0666 22.6074 19.59 22.1725 20.0255C21.737 20.4603 21.2137 20.6777 20.6025 20.6777H2.82476ZM20.6025 18.4555V5.12218H16.1025L14.0748 2.89996H9.35254L7.32476 5.12218H2.82476V18.4555H20.6025Z" fill="white"/>
</svg>
