<svg width="27" height="24" viewBox="0 0 27 24" fill="none" xmlns="http://www.w3.org/2000/svg">
<mask id="mask0_2291_22958" style="mask-type:alpha" maskUnits="userSpaceOnUse" x="0" y="0" width="27" height="24">
<rect x="0.943359" width="25.1042" height="24" fill="#D9D9D9"/>
</mask>
<g mask="url(#mask0_2291_22958)">
<path d="M21.654 20.9746L14.8809 14.5C14.3579 14.9164 13.7478 15.2454 13.0508 15.487C12.3533 15.729 11.6211 15.85 10.8542 15.85C8.95378 15.85 7.34983 15.225 6.04232 13.975C4.73481 12.725 4.08105 11.2082 4.08105 9.42461C4.08105 7.64141 4.73481 6.12061 6.04232 4.86221C7.34983 3.60381 8.94499 2.97461 10.8278 2.97461C12.693 2.97461 14.2794 3.60381 15.5869 4.86221C16.8944 6.12061 17.5482 7.64141 17.5482 9.42461C17.5482 10.1414 17.4262 10.829 17.1823 11.4874C16.9384 12.1458 16.5811 12.7582 16.1104 13.3246L22.9092 19.7746L21.654 20.9746ZM10.8278 14.1748C12.2052 14.1748 13.3776 13.7122 14.3449 12.787C15.3127 11.8622 15.7966 10.7414 15.7966 9.42461C15.7966 8.10821 15.3127 6.98321 14.3449 6.04961C13.3776 5.11641 12.2052 4.64981 10.8278 4.64981C9.43327 4.64981 8.25212 5.11641 7.28435 6.04961C6.317 6.98321 5.83333 8.10821 5.83333 9.42461C5.83333 10.7414 6.317 11.8622 7.28435 12.787C8.25212 13.7122 9.43327 14.1748 10.8278 14.1748Z" fill="white"/>
</g>
</svg>
