<svg width="19" height="19" viewBox="0 0 19 19" fill="none" xmlns="http://www.w3.org/2000/svg">
<path d="M17.654 18.9748L10.8809 12.5002C10.3579 12.9166 9.74784 13.2456 9.05078 13.4872C8.35331 13.7292 7.6211 13.8502 6.85417 13.8502C4.95378 13.8502 3.34983 13.2252 2.04232 11.9752C0.73481 10.7252 0.0810547 9.20839 0.0810547 7.42479C0.0810547 5.64159 0.73481 4.12079 2.04232 2.86239C3.34983 1.60399 4.94499 0.974792 6.82781 0.974792C8.69305 0.974792 10.2794 1.60399 11.5869 2.86239C12.8944 4.12079 13.5482 5.64159 13.5482 7.42479C13.5482 8.14159 13.4262 8.82919 13.1823 9.48759C12.9384 10.146 12.5811 10.7584 12.1104 11.3248L18.9092 17.7748L17.654 18.9748ZM6.82781 12.175C8.20519 12.175 9.37756 11.7124 10.3449 10.7872C11.3127 9.86239 11.7966 8.74159 11.7966 7.42479C11.7966 6.10839 11.3127 4.98339 10.3449 4.04979C9.37756 3.11659 8.20519 2.64999 6.82781 2.64999C5.43327 2.64999 4.25212 3.11659 3.28435 4.04979C2.317 4.98339 1.83333 6.10839 1.83333 7.42479C1.83333 8.74159 2.317 9.86239 3.28435 10.7872C4.25212 11.7124 5.43327 12.175 6.82781 12.175Z" fill="white"/>
</svg>
