<svg width="18" height="18" viewBox="0 0 18 18" fill="none" xmlns="http://www.w3.org/2000/svg">
<path d="M16.8 17.5704L10.3248 11.25C9.8248 11.6565 9.2416 11.9777 8.5752 12.2135C7.9084 12.4497 7.2084 12.5679 6.4752 12.5679C4.6584 12.5679 3.125 11.9577 1.875 10.7375C0.625 9.51727 0 8.03658 0 6.29545C0 4.55471 0.625 3.07012 1.875 1.84168C3.125 0.613242 4.65 -0.000976563 6.45 -0.000976562C8.2332 -0.000976562 9.7498 0.613242 10.9998 1.84168C12.2498 3.07012 12.8748 4.55471 12.8748 6.29545C12.8748 6.99518 12.7582 7.66641 12.525 8.30914C12.2918 8.95186 11.9502 9.54968 11.5002 10.1026L18 16.399L16.8 17.5704ZM6.45 10.9326C7.7668 10.9326 8.8876 10.481 9.8124 9.57779C10.7376 8.67501 11.2002 7.5809 11.2002 6.29545C11.2002 5.01039 10.7376 3.91218 9.8124 3.00081C8.8876 2.08983 7.7668 1.63434 6.45 1.63434C5.1168 1.63434 3.9876 2.08983 3.0624 3.00081C2.1376 3.91218 1.6752 5.01039 1.6752 6.29545C1.6752 7.5809 2.1376 8.67501 3.0624 9.57779C3.9876 10.481 5.1168 10.9326 6.45 10.9326Z" fill="#F25B38" fill-opacity="0.7"/>
</svg>
