<svg width="47" height="47" viewBox="0 0 47 47" fill="none" xmlns="http://www.w3.org/2000/svg">
<path d="M43.0832 11.358C41.6112 11.9966 40.0545 12.4188 38.4615 12.6113C40.1421 11.6073 41.4015 10.0279 42.0061 8.16593C40.4268 9.10605 38.698 9.76843 36.8948 10.1243C35.6896 8.81721 34.0846 7.94718 32.3315 7.6506C30.5785 7.35402 28.7766 7.64767 27.2085 8.48551C25.6404 9.32334 24.3947 10.658 23.6668 12.2801C22.9389 13.9022 22.7699 15.72 23.1865 17.4484C19.9933 17.2869 16.8698 16.4555 14.0189 15.0081C11.168 13.5607 8.65341 11.5297 6.63859 9.04718C5.9319 10.2813 5.56056 11.6788 5.5615 13.1009C5.559 14.4216 5.8831 15.7224 6.50494 16.8875C7.12679 18.0526 8.02708 19.0459 9.12567 19.7788C7.84879 19.7441 6.5992 19.4015 5.48317 18.7801V18.878C5.49274 20.7284 6.14116 22.5187 7.31875 23.9461C8.49633 25.3735 10.1308 26.3503 11.9457 26.7113C11.247 26.924 10.5217 27.0361 9.7915 27.0443C9.28604 27.0384 8.78183 26.9925 8.28359 26.9072C8.80041 28.4989 9.80056 29.89 11.1449 30.8868C12.4892 31.8836 14.1108 32.4366 15.784 32.4688C12.9585 34.6921 9.47011 35.9054 5.87484 35.9155C5.22024 35.9177 4.56615 35.8784 3.9165 35.798C7.58726 38.1681 11.865 39.4263 16.2344 39.4209C19.2497 39.4522 22.2409 38.8824 25.0334 37.7448C27.826 36.6071 30.3638 34.9244 32.4988 32.7949C34.6337 30.6654 36.3229 28.1319 37.4678 25.3423C38.6126 22.5527 39.1901 19.5629 39.1665 16.5476C39.1665 16.2147 39.1665 15.8622 39.1665 15.5097C40.7032 14.3637 42.0286 12.9588 43.0832 11.358Z" fill="#00ACEE"/>
</svg>
