<svg width="37" height="37" viewBox="0 0 37 37" fill="none" xmlns="http://www.w3.org/2000/svg">
<mask id="mask0_2295_25164" style="mask-type:alpha" maskUnits="userSpaceOnUse" x="0" y="0" width="37" height="37">
<rect x="0.613281" y="0.369598" width="36" height="36" fill="#D9D9D9"/>
</mask>
<g mask="url(#mask0_2295_25164)">
<path d="M9.12518 30.3693C8.45018 30.3693 7.86278 30.1194 7.36298 29.6196C6.86318 29.1198 6.61328 28.5324 6.61328 27.8574V22.7949H9.12518V27.8574H28.1008V22.7949H30.6127V27.8574C30.6127 28.5324 30.3628 29.1198 29.863 29.6196C29.3632 30.1194 28.7758 30.3693 28.1008 30.3693H9.12518ZM17.3755 24.5571V11.2074L13.0627 15.4824L11.3005 13.6824L18.613 6.3699L25.9255 13.6824L24.1633 15.4824L19.8505 11.2074V24.5571H17.3755Z" fill="white"/>
</g>
</svg>
