<svg width="23" height="16" viewBox="0 0 23 16" fill="none" xmlns="http://www.w3.org/2000/svg">
<path d="M11.3594 12.5967C12.6094 12.5967 13.672 12.1593 14.5474 11.2847C15.422 10.4093 15.8594 9.34668 15.8594 8.09668C15.8594 6.84668 15.422 5.78401 14.5474 4.90868C13.672 4.03401 12.6094 3.59668 11.3594 3.59668C10.1094 3.59668 9.04671 4.03401 8.17138 4.90868C7.29671 5.78401 6.85938 6.84668 6.85938 8.09668C6.85938 9.34668 7.29671 10.4093 8.17138 11.2847C9.04671 12.1593 10.1094 12.5967 11.3594 12.5967ZM11.3594 10.7967C10.6094 10.7967 9.97204 10.534 9.44738 10.0087C8.92204 9.48401 8.65938 8.84668 8.65938 8.09668C8.65938 7.34668 8.92204 6.70901 9.44738 6.18368C9.97204 5.65901 10.6094 5.39668 11.3594 5.39668C12.1094 5.39668 12.747 5.65901 13.2724 6.18368C13.797 6.70901 14.0594 7.34668 14.0594 8.09668C14.0594 8.84668 13.797 9.48401 13.2724 10.0087C12.747 10.534 12.1094 10.7967 11.3594 10.7967ZM11.3594 15.5967C8.92604 15.5967 6.70937 14.9173 4.70937 13.5587C2.70937 12.2007 1.25937 10.38 0.359375 8.09668C1.25937 5.81335 2.70937 3.99235 4.70937 2.63368C6.70937 1.27568 8.92604 0.59668 11.3594 0.59668C13.7927 0.59668 16.0094 1.27568 18.0094 2.63368C20.0094 3.99235 21.4594 5.81335 22.3594 8.09668C21.4594 10.38 20.0094 12.2007 18.0094 13.5587C16.0094 14.9173 13.7927 15.5967 11.3594 15.5967ZM11.3594 13.5967C13.2427 13.5967 14.972 13.1007 16.5474 12.1087C18.122 11.1173 19.326 9.78001 20.1594 8.09668C19.326 6.41335 18.122 5.07568 16.5474 4.08368C14.972 3.09235 13.2427 2.59668 11.3594 2.59668C9.47604 2.59668 7.74671 3.09235 6.17137 4.08368C4.59671 5.07568 3.39271 6.41335 2.55938 8.09668C3.39271 9.78001 4.59671 11.1173 6.17137 12.1087C7.74671 13.1007 9.47604 13.5967 11.3594 13.5967Z" fill="#F25B38"/>
</svg>
