<svg width="32" height="32" viewBox="0 0 32 32" fill="none" xmlns="http://www.w3.org/2000/svg">
<g filter="url(#filter0_d_1734_21865)">
<circle cx="16" cy="12" r="11.5" fill="#02272F" stroke="url(#paint0_linear_1734_21865)"/>
<path d="M10.7449 4.26325C10.9665 4.1398 11.2016 4.0229 11.4599 3.89952C11.6079 3.83401 11.7599 3.77122 11.9083 3.71025C13.5187 3.08318 15.3148 2.89866 17.0338 3.1837C17.1859 3.20489 17.3445 3.23775 17.4976 3.27107C17.7889 3.33434 18.0869 3.41081 18.3736 3.50499C18.5146 3.54541 18.6565 3.59644 18.7984 3.64747C19.3481 3.84608 19.8684 4.09553 20.3496 4.39127C20.5436 4.51288 20.7378 4.63751 20.9108 4.77151C21.4599 5.17593 21.9403 5.64101 22.3392 6.15444C22.3478 6.16548 22.3563 6.17646 22.3648 6.18739C22.4281 6.26883 22.4895 6.34791 22.5469 6.43067C22.5932 6.48916 22.6353 6.54997 22.6729 6.61279C22.6987 6.64898 22.7222 6.68631 22.7433 6.72462C22.7858 6.79139 22.8331 6.86999 22.8809 6.95465L22.9616 7.10076C22.9922 7.15629 23.023 7.21486 23.0485 7.27538L23.0642 7.30769C23.0684 7.31643 23.0726 7.32511 23.0767 7.33372C23.099 7.3801 23.1204 7.42471 23.1444 7.46911L23.2051 7.61685C23.2469 7.71575 23.2844 7.80889 23.3186 7.90535C23.3466 7.97073 23.3691 8.03778 23.3859 8.106C23.412 8.1741 23.4469 8.27814 23.4725 8.38141L23.4744 8.38881C23.4761 8.39572 23.4779 8.40286 23.4797 8.4102L23.4862 8.43609C23.5113 8.53596 23.5442 8.66662 23.567 8.78598C23.8031 9.924 23.6922 11.1001 23.2444 12.2067C22.7966 13.3132 22.0262 14.3148 21.0038 15.1197C20.9455 15.1641 20.8887 15.2054 20.8315 15.2421C20.8004 15.2621 20.7702 15.2857 20.7393 15.3097C20.7135 15.3298 20.6872 15.3502 20.6597 15.3691C20.605 15.4086 20.5413 15.4383 20.4727 15.4562C20.4041 15.4742 20.3321 15.4801 20.2613 15.4735C20.1906 15.4669 20.1226 15.448 20.0617 15.418C20.0009 15.3879 19.9485 15.3475 19.908 15.2991L15.2054 9.29405C14.4171 8.28587 13.2251 7.54807 11.8356 7.20831C10.8097 6.96366 9.71893 6.94741 8.6702 7.16115L7.52724 7.38724L8.13911 6.54178C8.55129 5.96489 9.05988 5.43891 9.64906 4.98022L9.68692 4.9527C9.77946 4.88102 9.86723 4.81736 9.95176 4.75854C10.0363 4.69973 10.1658 4.61129 10.2871 4.53269C10.4538 4.43052 10.5983 4.34544 10.7449 4.26325Z" fill="url(#paint1_linear_1734_21865)"/>
<path d="M21.2514 19.6539C21.0307 19.7788 20.7965 19.8972 20.5391 20.0223C20.3915 20.0888 20.24 20.1526 20.092 20.2146C18.4862 20.8523 16.6914 21.0488 14.9704 20.7752C14.8182 20.755 14.6594 20.7232 14.506 20.6909C14.2142 20.6296 13.9157 20.5551 13.6283 20.4628C13.4871 20.4233 13.3448 20.3732 13.2026 20.3231C12.6514 20.1282 12.1293 19.8822 11.646 19.5897C11.4512 19.4694 11.2561 19.346 11.0821 19.2132C10.53 18.8124 10.0463 18.3505 9.64366 17.8398C9.63502 17.8288 9.62641 17.8179 9.61784 17.807C9.55399 17.726 9.49199 17.6473 9.43403 17.5649C9.38727 17.5067 9.34475 17.4462 9.30669 17.3836C9.28066 17.3476 9.25691 17.3104 9.23553 17.2723C9.1925 17.2058 9.14468 17.1275 9.09627 17.0432L9.0145 16.8976C8.98354 16.8423 8.95228 16.7839 8.92634 16.7236L8.91042 16.6914C8.90614 16.6826 8.90191 16.674 8.89771 16.6654C8.8751 16.6192 8.85335 16.5747 8.82901 16.5305L8.76724 16.3831C8.72479 16.2845 8.68656 16.1916 8.65167 16.0954C8.62319 16.0302 8.60024 15.9633 8.58299 15.8952C8.55632 15.8273 8.5207 15.7235 8.49432 15.6204L8.49243 15.613C8.49066 15.6061 8.48882 15.599 8.48692 15.5916L8.48023 15.5658C8.45441 15.4661 8.42062 15.3356 8.39694 15.2164C8.15264 14.08 8.25508 12.9032 8.69488 11.7937C9.13468 10.6842 9.89778 9.67756 10.9143 8.86588C10.9723 8.82103 11.0288 8.77938 11.0857 8.74227C11.1167 8.72207 11.1468 8.69833 11.1775 8.67412C11.2032 8.65386 11.2293 8.63323 11.2567 8.61411C11.3111 8.57429 11.3745 8.5442 11.443 8.52577C11.5115 8.50734 11.5834 8.50098 11.6542 8.5071C11.7251 8.51323 11.7932 8.53169 11.8543 8.56131C11.9153 8.59094 11.968 8.63106 12.0088 8.67912L16.7546 14.6528C17.5502 15.6557 18.7476 16.3856 20.1395 16.7161C21.1671 16.954 22.258 16.963 23.3051 16.7422L24.4464 16.5086L23.8407 17.3581C23.4327 17.9377 22.9279 18.467 22.342 18.9296L22.3044 18.9574C22.2123 19.0297 22.125 19.0939 22.0409 19.1533C21.9568 19.2127 21.8279 19.302 21.7073 19.3814C21.5412 19.4847 21.3974 19.5707 21.2514 19.6539Z" fill="url(#paint2_linear_1734_21865)"/>
</g>
<defs>
<filter id="filter0_d_1734_21865" x="0" y="0" width="32" height="32" filterUnits="userSpaceOnUse" color-interpolation-filters="sRGB">
<feFlood flood-opacity="0" result="BackgroundImageFix"/>
<feColorMatrix in="SourceAlpha" type="matrix" values="0 0 0 0 0 0 0 0 0 0 0 0 0 0 0 0 0 0 127 0" result="hardAlpha"/>
<feOffset dy="4"/>
<feGaussianBlur stdDeviation="2"/>
<feComposite in2="hardAlpha" operator="out"/>
<feColorMatrix type="matrix" values="0 0 0 0 0 0 0 0 0 0 0 0 0 0 0 0 0 0 0.25 0"/>
<feBlend mode="normal" in2="BackgroundImageFix" result="effect1_dropShadow_1734_21865"/>
<feBlend mode="normal" in="SourceGraphic" in2="effect1_dropShadow_1734_21865" result="shape"/>
</filter>
<linearGradient id="paint0_linear_1734_21865" x1="4.26667" y1="0.266667" x2="27.7333" y2="23.7333" gradientUnits="userSpaceOnUse">
<stop stop-color="#F7D620"/>
<stop offset="0.520833" stop-color="#FAF4D8"/>
<stop offset="0.96875" stop-color="#FED914"/>
</linearGradient>
<linearGradient id="paint1_linear_1734_21865" x1="8.49449" y1="16.2999" x2="19.3807" y2="0.193496" gradientUnits="userSpaceOnUse">
<stop stop-color="#F7D620"/>
<stop offset="0.520833" stop-color="#FAF4D8"/>
<stop offset="0.96875" stop-color="#FED914"/>
</linearGradient>
<linearGradient id="paint2_linear_1734_21865" x1="23.4148" y1="7.60257" x2="12.6416" y2="23.7786" gradientUnits="userSpaceOnUse">
<stop stop-color="#F7D620"/>
<stop offset="0.520833" stop-color="#FAF4D8"/>
<stop offset="0.96875" stop-color="#FED914"/>
</linearGradient>
</defs>
</svg>
