<svg width="25" height="24" viewBox="0 0 25 24" fill="none" xmlns="http://www.w3.org/2000/svg">
<mask id="mask0_1741_22097" style="mask-type:alpha" maskUnits="userSpaceOnUse" x="0" y="0" width="25" height="24">
<rect x="0.5" width="24" height="24" fill="#D9D9D9"/>
</mask>
<g mask="url(#mask0_1741_22097)">
<path d="M6.4998 17.675C6.0498 17.675 5.6582 17.5084 5.325 17.1752C4.9914 16.842 4.8246 16.4504 4.8246 16.0004V3.6752C4.8246 3.2252 4.9914 2.8336 5.325 2.5004C5.6582 2.1668 6.0498 2 6.4998 2H12.2496L13.9248 3.6752H21.825C22.275 3.6752 22.6666 3.8378 22.9998 4.163C23.333 4.4878 23.4996 4.8752 23.4996 5.3252V16.0004C23.4996 16.4504 23.333 16.842 22.9998 17.1752C22.6666 17.5084 22.275 17.675 21.825 17.675H6.4998ZM6.4998 16.0004H21.825V5.3252H13.2246L11.55 3.6752H6.4998V16.0004ZM20.6748 21.0002H3.1746C2.7246 21.0002 2.333 20.8336 1.9998 20.5004C1.6666 20.1668 1.5 19.775 1.5 19.325V5.3252H3.1746V19.325H20.6748V21.0002ZM9.075 13.475H19.275L15.9498 9.05L13.2246 12.65L11.3748 10.5002L9.075 13.475Z" fill="#F25B38"/>
</g>
</svg>
