<svg width="37" height="46" viewBox="0 0 37 46" fill="none" xmlns="http://www.w3.org/2000/svg">
<mask id="mask0_2291_22888" style="mask-type:alpha" maskUnits="userSpaceOnUse" x="0" y="0" width="37" height="37">
<rect x="0.613281" y="0.369629" width="36" height="36" fill="#D9D9D9"/>
</mask>
<g mask="url(#mask0_2291_22888)">
<path d="M9.12518 30.3695C8.45018 30.3695 7.86278 30.1196 7.36298 29.6198C6.86318 29.12 6.61328 28.5326 6.61328 27.8576V22.7951H9.12518V27.8576H28.1008V22.7951H30.6127V27.8576C30.6127 28.5326 30.3628 29.12 29.863 29.6198C29.3632 30.1196 28.7758 30.3695 28.1008 30.3695H9.12518ZM17.3755 24.5573V11.2076L13.0627 15.4826L11.3005 13.6826L18.613 6.37012L25.9255 13.6826L24.1633 15.4826L19.8505 11.2076V24.5573H17.3755Z" fill="white"/>
</g>
</svg>
