<svg width="44" height="56" viewBox="0 0 44 56" fill="none" xmlns="http://www.w3.org/2000/svg">
<mask id="mask0_2291_22894" style="mask-type:alpha" maskUnits="userSpaceOnUse" x="0" y="8" width="36" height="36">
<rect y="8" width="36" height="36" fill="#D9D9D9"/>
</mask>
<g mask="url(#mask0_2291_22894)">
<path d="M6 36.5001V33.9873H9.1122V22.8498C9.1122 20.7498 9.7311 18.8874 10.9689 17.2626C12.2061 15.6372 13.8372 14.5995 15.8622 14.1495V13.0623C15.8622 12.4875 16.0683 12 16.4805 11.5998C16.8933 11.1996 17.3997 10.9995 17.9997 10.9995C18.5997 10.9995 19.1061 11.1996 19.5189 11.5998C19.9311 12 20.1372 12.4875 20.1372 13.0623V14.1495C22.1622 14.5995 23.7996 15.6372 25.0494 17.2626C26.2998 18.8874 26.925 20.7498 26.925 22.8498V33.9873H29.9994V36.5001H6ZM17.9997 41.0001C17.1999 41.0001 16.5 40.7064 15.9 40.119C15.3 39.531 15 38.8245 15 37.9995H20.9994C20.9994 38.8245 20.7057 39.531 20.1183 40.119C19.5309 40.7064 18.8247 41.0001 17.9997 41.0001ZM11.5872 33.9873H24.4122V22.8498C24.4122 21.075 23.7933 19.5564 22.5555 18.294C21.3183 17.031 19.8123 16.3995 18.0375 16.3995C16.2375 16.3995 14.7123 17.031 13.4619 18.294C12.2121 19.5564 11.5872 21.075 11.5872 22.8498V33.9873Z" fill="white"/>
</g>
<rect x="27" width="17" height="17" rx="8.5" fill="white"/>
<path d="M38.8446 3.696H33.2286V7.344C33.4739 7.00267 33.8366 6.72533 34.3166 6.512C34.7966 6.288 35.3139 6.176 35.8686 6.176C36.7539 6.176 37.4739 6.36267 38.0286 6.736C38.5832 7.09867 38.9779 7.57333 39.2126 8.16C39.4579 8.736 39.5806 9.34933 39.5806 10C39.5806 10.768 39.4366 11.456 39.1486 12.064C38.8606 12.672 38.4179 13.152 37.8206 13.504C37.2339 13.856 36.5032 14.032 35.6286 14.032C34.5086 14.032 33.6019 13.744 32.9086 13.168C32.2152 12.592 31.7939 11.824 31.6446 10.864H33.0686C33.2072 11.472 33.5006 11.9467 33.9486 12.288C34.3966 12.6293 34.9619 12.8 35.6446 12.8C36.4872 12.8 37.1219 12.5493 37.5486 12.048C37.9752 11.536 38.1886 10.864 38.1886 10.032C38.1886 9.2 37.9752 8.56 37.5486 8.112C37.1219 7.65333 36.4926 7.424 35.6606 7.424C35.0952 7.424 34.5992 7.56267 34.1726 7.84C33.7566 8.10667 33.4526 8.47467 33.2606 8.944H31.8846V2.416H38.8446V3.696Z" fill="#F25B38"/>
</svg>
