<svg width="38" height="38" viewBox="0 0 38 38" fill="none" xmlns="http://www.w3.org/2000/svg">
<g filter="url(#filter0_d_1720_20366)">
<circle cx="19" cy="15" r="14.5" fill="white" stroke="#F25B38"/>
<path d="M30.8427 15.2566L29.6794 16.1942C29.6363 16.2314 29.5896 16.2642 29.5401 16.2922L28.6834 16.768C27.5116 17.3263 26.2151 17.5675 24.922 17.4678C23.2078 17.3085 21.6033 16.5509 20.3875 15.3266L11.207 6.06897L11.8409 5.57915C13.5881 4.24627 15.6696 3.42722 17.8531 3.21336C20.0367 2.99951 22.2364 3.39927 24.207 4.36804C26.1776 5.33681 27.8416 6.83651 29.0133 8.69984C30.1849 10.5632 30.8183 12.7169 30.8427 14.9207V15.2566ZM28.7948 15.0956L28.8575 15.0607L29.4356 14.5918C29.3668 12.7424 28.8105 10.9444 27.8235 9.38162C26.8366 7.81886 25.4543 6.54733 23.818 5.69695C22.1817 4.84657 20.35 4.44783 18.51 4.54147C16.6701 4.63511 14.8878 5.21777 13.3454 6.22991L21.3766 14.3259C22.231 15.1932 23.3308 15.7747 24.5262 15.9914C25.7215 16.208 26.9542 16.0491 28.0565 15.5365L28.7948 15.0956Z" fill="#02272F"/>
<path d="M27.3207 23.405C27.0563 23.6705 26.7779 23.922 26.4578 24.1874C26.2769 24.3341 26.089 24.4808 25.9081 24.6135C23.9089 26.073 21.4978 26.8537 19.0259 26.8419C18.8102 26.8419 18.5736 26.8419 18.33 26.8419C17.9056 26.8419 17.4672 26.765 17.0427 26.7021C16.8339 26.7021 16.6182 26.6253 16.4094 26.5764C15.5796 26.3962 14.7721 26.1244 14.0017 25.7661C13.6886 25.6124 13.3894 25.4587 13.0901 25.2841C12.1913 24.768 11.3652 24.1337 10.6337 23.3981C10.5012 23.2699 10.3758 23.1347 10.258 22.9929C10.1703 22.9106 10.0889 22.8219 10.0144 22.7275C9.96613 22.675 9.92193 22.619 9.88219 22.5598C9.79868 22.462 9.70125 22.3433 9.61079 22.2175L9.44378 21.987C9.38116 21.9032 9.31852 21.8194 9.26285 21.7285L9.22807 21.6727L9.06106 21.4282L8.92885 21.2116C8.83524 21.0673 8.7493 20.918 8.67138 20.7646C8.60659 20.6649 8.55069 20.5597 8.50436 20.4502C8.44173 20.3454 8.35824 20.1848 8.28169 20.0241C8.20515 19.8634 8.10076 19.605 8.01029 19.3814C7.27867 17.5677 7.01189 15.5987 7.23436 13.6547C7.45683 11.7106 8.16145 9.85368 9.28373 8.25371L9.47859 8.00922C9.53426 7.91841 9.60384 7.83458 9.66647 7.75076L10.1536 7.12207L10.7311 7.66693L19.3669 16.2799C20.6201 17.5461 22.2298 18.3963 23.9792 18.7161C25.7285 19.0358 27.5334 18.8097 29.1508 18.0682L30.64 17.3697L30.0972 18.9274C29.7322 19.9881 29.2166 20.9904 28.5663 21.9032L28.5176 22.008L28.2184 22.3922C28.114 22.5319 27.9748 22.6925 27.8356 22.8532C27.6964 23.0139 27.4946 23.2164 27.3207 23.405ZM10.3345 20.7576C10.3575 20.7987 10.3831 20.8384 10.4111 20.8763L10.4528 20.9392C10.4948 21.0114 10.5437 21.0792 10.5989 21.1418L10.752 21.3653L11.0025 21.6727L11.1139 21.8124C11.1733 21.8872 11.2384 21.9573 11.3087 22.0219C11.4409 22.1756 11.5384 22.2804 11.6427 22.3852C12.2883 23.0323 13.0159 23.5913 13.8069 24.0477C14.0783 24.2014 14.3497 24.3411 14.6211 24.4738C15.2895 24.7823 15.9895 25.0165 16.7087 25.1723C16.9105 25.2212 17.0844 25.2562 17.2723 25.2841C17.6596 25.3463 18.0498 25.3883 18.4414 25.4098C18.6314 25.4203 18.8219 25.4203 19.012 25.4098C21.1938 25.4231 23.3225 24.7353 25.0869 23.4469C25.254 23.3305 25.414 23.2048 25.5671 23.0697C26.0018 22.7173 26.4068 22.3295 26.7779 21.9102C26.9032 21.7565 27.0215 21.6238 27.1258 21.4841C27.2302 21.3443 27.3068 21.2535 27.3833 21.1488L27.4251 21.0859C27.6959 20.7125 27.9401 20.3203 28.1557 19.9123C27.0108 20.2175 25.8219 20.3214 24.6416 20.2197C22.274 20.0002 20.0579 18.9547 18.3787 17.2649L10.3275 9.18975C9.38683 10.5901 8.804 12.2013 8.63046 13.8813C8.45691 15.5613 8.69799 17.2583 9.33244 18.8226C9.39734 19.0145 9.47643 19.2013 9.56904 19.3814C9.62556 19.5159 9.69064 19.6466 9.76388 19.7726C9.79902 19.8539 9.83852 19.9332 9.88219 20.0101C9.99352 20.2127 10.0909 20.3664 10.1814 20.5131L10.3275 20.6598L10.3345 20.7576Z" fill="#F25B38"/>
</g>
<defs>
<filter id="filter0_d_1720_20366" x="0" y="0" width="38" height="38" filterUnits="userSpaceOnUse" color-interpolation-filters="sRGB">
<feFlood flood-opacity="0" result="BackgroundImageFix"/>
<feColorMatrix in="SourceAlpha" type="matrix" values="0 0 0 0 0 0 0 0 0 0 0 0 0 0 0 0 0 0 127 0" result="hardAlpha"/>
<feOffset dy="4"/>
<feGaussianBlur stdDeviation="2"/>
<feComposite in2="hardAlpha" operator="out"/>
<feColorMatrix type="matrix" values="0 0 0 0 0 0 0 0 0 0 0 0 0 0 0 0 0 0 0.25 0"/>
<feBlend mode="normal" in2="BackgroundImageFix" result="effect1_dropShadow_1720_20366"/>
<feBlend mode="normal" in="SourceGraphic" in2="effect1_dropShadow_1720_20366" result="shape"/>
</filter>
</defs>
</svg>
