<svg width="50" height="56" viewBox="0 0 50 56" fill="none" xmlns="http://www.w3.org/2000/svg">
<mask id="mask0_2291_22900" style="mask-type:alpha" maskUnits="userSpaceOnUse" x="0" y="8" width="36" height="36">
<rect y="8" width="36" height="36" fill="#D9D9D9"/>
</mask>
<g mask="url(#mask0_2291_22900)">
<path d="M7.0128 41.0005C6.3378 41.0005 5.7501 40.7503 5.2497 40.2499C4.7499 39.7501 4.5 39.1627 4.5 38.4877V19.2502C4.5 18.5752 4.7499 17.9878 5.2497 17.488C5.7501 16.9876 6.3378 16.7374 7.0128 16.7374H10.7622C10.7622 14.7376 11.4435 13.0315 12.8061 11.6191C14.1687 10.2067 15.8625 9.50049 17.8875 9.50049C19.8873 9.50049 21.6123 10.2067 23.0625 11.6191C24.5127 13.0315 25.2378 14.7376 25.2378 16.7374H28.9872C29.6622 16.7374 30.2499 16.9876 30.7503 17.488C31.2501 17.9878 31.5 18.5752 31.5 19.2502V38.4877C31.5 39.1627 31.2501 39.7501 30.7503 40.2499C30.2499 40.7503 29.6622 41.0005 28.9872 41.0005H7.0128ZM7.0128 38.4877H28.9872V19.2502H7.0128V38.4877ZM18 28.2502C19.9998 28.2502 21.7311 27.5251 23.1939 26.0749C24.6561 24.6253 25.3872 22.888 25.3872 20.863H22.8753C22.8753 22.213 22.3938 23.3629 21.4308 24.3127C20.4684 25.2625 19.3248 25.7374 18 25.7374C16.6752 25.7374 15.5316 25.2625 14.5692 24.3127C13.6062 23.3629 13.1247 22.213 13.1247 20.863H10.6128C10.6128 22.888 11.3439 24.6253 12.8061 26.0749C14.2689 27.5251 16.0002 28.2502 18 28.2502ZM13.2372 16.7374H22.7628C22.7628 15.4126 22.3002 14.2939 21.375 13.3813C20.4498 12.4687 19.3248 12.0124 18 12.0124C16.6752 12.0124 15.5502 12.4687 14.625 13.3813C13.6998 14.2939 13.2372 15.4126 13.2372 16.7374Z" fill="white"/>
</g>
<rect x="33" width="17" height="17" rx="8.5" fill="white"/>
<path d="M37.7491 5.344C37.8237 4.36267 38.2024 3.59467 38.8851 3.04C39.5677 2.48533 40.4531 2.208 41.5411 2.208C42.2664 2.208 42.8904 2.34133 43.4131 2.608C43.9464 2.864 44.3464 3.216 44.6131 3.664C44.8904 4.112 45.0291 4.61867 45.0291 5.184C45.0291 5.84533 44.8371 6.416 44.4531 6.896C44.0797 7.376 43.5891 7.68533 42.9811 7.824V7.904C43.6744 8.07467 44.2237 8.41067 44.6291 8.912C45.0344 9.41333 45.2371 10.0693 45.2371 10.88C45.2371 11.488 45.0984 12.0373 44.8211 12.528C44.5437 13.008 44.1277 13.3867 43.5731 13.664C43.0184 13.9413 42.3517 14.08 41.5731 14.08C40.4424 14.08 39.5144 13.7867 38.7891 13.2C38.0637 12.6027 37.6584 11.76 37.5731 10.672H38.9811C39.0557 11.312 39.3171 11.8347 39.7651 12.24C40.2131 12.6453 40.8104 12.848 41.5571 12.848C42.3037 12.848 42.8691 12.656 43.2531 12.272C43.6477 11.8773 43.8451 11.3707 43.8451 10.752C43.8451 9.952 43.5784 9.376 43.0451 9.024C42.5117 8.672 41.7064 8.496 40.6291 8.496H40.2611V7.28H40.6451C41.6264 7.26933 42.3677 7.10933 42.8691 6.8C43.3704 6.48 43.6211 5.98933 43.6211 5.328C43.6211 4.76267 43.4344 4.30933 43.0611 3.968C42.6984 3.62667 42.1757 3.456 41.4931 3.456C40.8317 3.456 40.2984 3.62667 39.8931 3.968C39.4877 4.30933 39.2477 4.768 39.1731 5.344H37.7491Z" fill="#F25B38"/>
</svg>
