<svg width="36" height="48" viewBox="0 0 36 48" fill="none" xmlns="http://www.w3.org/2000/svg">
<mask id="mask0_2291_22884" style="mask-type:alpha" maskUnits="userSpaceOnUse" x="-1" y="0" width="37" height="37">
<rect x="-0.386719" y="0.369629" width="36" height="36" fill="#D9D9D9"/>
</mask>
<g mask="url(#mask0_2291_22884)">
<path d="M8.61328 30.3696C7.36328 30.3696 6.30078 29.9321 5.42578 29.0571C4.55078 28.1821 4.11328 27.1196 4.11328 25.8696H1.11328V9.36963C1.11328 8.54463 1.40703 7.83838 1.99453 7.25088C2.58203 6.66338 3.28828 6.36963 4.11328 6.36963H25.1133V12.3696H29.6133L34.1133 18.3696V25.8696H31.1133C31.1133 27.1196 30.6758 28.1821 29.8008 29.0571C28.9258 29.9321 27.8633 30.3696 26.6133 30.3696C25.3633 30.3696 24.3008 29.9321 23.4258 29.0571C22.5508 28.1821 22.1133 27.1196 22.1133 25.8696H13.1133C13.1133 27.1196 12.6758 28.1821 11.8008 29.0571C10.9258 29.9321 9.86328 30.3696 8.61328 30.3696ZM8.61328 27.3696C9.03828 27.3696 9.39453 27.2259 9.68203 26.9384C9.96953 26.6509 10.1133 26.2946 10.1133 25.8696C10.1133 25.4446 9.96953 25.0884 9.68203 24.8009C9.39453 24.5134 9.03828 24.3696 8.61328 24.3696C8.18828 24.3696 7.83203 24.5134 7.54453 24.8009C7.25703 25.0884 7.11328 25.4446 7.11328 25.8696C7.11328 26.2946 7.25703 26.6509 7.54453 26.9384C7.83203 27.2259 8.18828 27.3696 8.61328 27.3696ZM4.11328 22.8696H5.31328C5.73828 22.4196 6.22578 22.0571 6.77578 21.7821C7.32578 21.5071 7.93828 21.3696 8.61328 21.3696C9.28828 21.3696 9.90078 21.5071 10.4508 21.7821C11.0008 22.0571 11.4883 22.4196 11.9133 22.8696H22.1133V9.36963H4.11328V22.8696ZM26.6133 27.3696C27.0383 27.3696 27.3945 27.2259 27.682 26.9384C27.9695 26.6509 28.1133 26.2946 28.1133 25.8696C28.1133 25.4446 27.9695 25.0884 27.682 24.8009C27.3945 24.5134 27.0383 24.3696 26.6133 24.3696C26.1883 24.3696 25.832 24.5134 25.5445 24.8009C25.257 25.0884 25.1133 25.4446 25.1133 25.8696C25.1133 26.2946 25.257 26.6509 25.5445 26.9384C25.832 27.2259 26.1883 27.3696 26.6133 27.3696ZM25.1133 19.8696H31.4883L28.1133 15.3696H25.1133V19.8696Z" fill="white"/>
</g>
</svg>
