<svg width="36" height="48" viewBox="0 0 36 48" fill="none" xmlns="http://www.w3.org/2000/svg">
<mask id="mask0_2291_22890" style="mask-type:alpha" maskUnits="userSpaceOnUse" x="0" y="0" width="36" height="36">
<rect width="36" height="36" fill="#D9D9D9"/>
</mask>
<g mask="url(#mask0_2291_22890)">
<path d="M18.0003 1.50049L31.8 9.74989C32.2254 10.0001 32.5317 10.3316 32.7189 10.7444C32.9067 11.1566 33.0006 11.5751 33.0006 11.9999V28.9874C33.0006 29.6624 32.7504 30.2501 32.25 30.7505C31.7502 31.2503 31.1628 31.5002 30.4878 31.5002H5.5128C4.8378 31.5002 4.2504 31.2503 3.7506 30.7505C3.2502 30.2501 3 29.6624 3 28.9874V11.9999C3 11.5751 3.0939 11.1566 3.2817 10.7444C3.4689 10.3316 3.7752 10.0001 4.2006 9.74989L18.0003 1.50049ZM18.0003 18.9749L30.3006 11.738L18.0003 4.34989L5.7 11.738L18.0003 18.9749ZM18.0003 21.8252L5.5128 14.438V28.9874H30.4878V14.438L18.0003 21.8252Z" fill="white"/>
</g>
</svg>
