<svg width="36" height="36" viewBox="0 0 36 36" fill="none" xmlns="http://www.w3.org/2000/svg">
<mask id="mask0_2291_22901" style="mask-type:alpha" maskUnits="userSpaceOnUse" x="0" y="0" width="36" height="36">
<rect width="36" height="36" fill="#D9D9D9"/>
</mask>
<g mask="url(#mask0_2291_22901)">
<path d="M7.0128 33.0005C6.3378 33.0005 5.7501 32.7503 5.2497 32.2499C4.7499 31.7501 4.5 31.1627 4.5 30.4877V11.2502C4.5 10.5752 4.7499 9.98779 5.2497 9.48799C5.7501 8.98759 6.3378 8.73739 7.0128 8.73739H10.7622C10.7622 6.73759 11.4435 5.03149 12.8061 3.61909C14.1687 2.20669 15.8625 1.50049 17.8875 1.50049C19.8873 1.50049 21.6123 2.20669 23.0625 3.61909C24.5127 5.03149 25.2378 6.73759 25.2378 8.73739H28.9872C29.6622 8.73739 30.2499 8.98759 30.7503 9.48799C31.2501 9.98779 31.5 10.5752 31.5 11.2502V30.4877C31.5 31.1627 31.2501 31.7501 30.7503 32.2499C30.2499 32.7503 29.6622 33.0005 28.9872 33.0005H7.0128ZM7.0128 30.4877H28.9872V11.2502H7.0128V30.4877ZM18 20.2502C19.9998 20.2502 21.7311 19.5251 23.1939 18.0749C24.6561 16.6253 25.3872 14.888 25.3872 12.863H22.8753C22.8753 14.213 22.3938 15.3629 21.4308 16.3127C20.4684 17.2625 19.3248 17.7374 18 17.7374C16.6752 17.7374 15.5316 17.2625 14.5692 16.3127C13.6062 15.3629 13.1247 14.213 13.1247 12.863H10.6128C10.6128 14.888 11.3439 16.6253 12.8061 18.0749C14.2689 19.5251 16.0002 20.2502 18 20.2502ZM13.2372 8.73739H22.7628C22.7628 7.41259 22.3002 6.29389 21.375 5.38129C20.4498 4.46869 19.3248 4.01239 18 4.01239C16.6752 4.01239 15.5502 4.46869 14.625 5.38129C13.6998 6.29389 13.2372 7.41259 13.2372 8.73739Z" fill="white"/>
</g>
</svg>
