<svg width="36" height="36" viewBox="0 0 36 36" fill="none" xmlns="http://www.w3.org/2000/svg">
<mask id="mask0_2291_22895" style="mask-type:alpha" maskUnits="userSpaceOnUse" x="0" y="0" width="36" height="36">
<rect width="36" height="36" fill="#D9D9D9"/>
</mask>
<g mask="url(#mask0_2291_22895)">
<path d="M6 28.5001V25.9873H9.1122V14.8498C9.1122 12.7498 9.7311 10.8874 10.9689 9.26261C12.2061 7.63721 13.8372 6.59951 15.8622 6.14951V5.06231C15.8622 4.48751 16.0683 4.00001 16.4805 3.59981C16.8933 3.19961 17.3997 2.99951 17.9997 2.99951C18.5997 2.99951 19.1061 3.19961 19.5189 3.59981C19.9311 4.00001 20.1372 4.48751 20.1372 5.06231V6.14951C22.1622 6.59951 23.7996 7.63721 25.0494 9.26261C26.2998 10.8874 26.925 12.7498 26.925 14.8498V25.9873H29.9994V28.5001H6ZM17.9997 33.0001C17.1999 33.0001 16.5 32.7064 15.9 32.119C15.3 31.531 15 30.8245 15 29.9995H20.9994C20.9994 30.8245 20.7057 31.531 20.1183 32.119C19.5309 32.7064 18.8247 33.0001 17.9997 33.0001ZM11.5872 25.9873H24.4122V14.8498C24.4122 13.075 23.7933 11.5564 22.5555 10.294C21.3183 9.03101 19.8123 8.39951 18.0375 8.39951C16.2375 8.39951 14.7123 9.03101 13.4619 10.294C12.2121 11.5564 11.5872 13.075 11.5872 14.8498V25.9873Z" fill="white"/>
</g>
</svg>
