<svg width="25" height="24" viewBox="0 0 25 24" fill="none" xmlns="http://www.w3.org/2000/svg">
<mask id="mask0_1741_22153" style="mask-type:alpha" maskUnits="userSpaceOnUse" x="0" y="0" width="25" height="24">
<rect x="0.5" width="24" height="24" fill="#D9D9D9"/>
</mask>
<g mask="url(#mask0_1741_22153)">
<path d="M5.5 17.85C6.4 16.9667 7.44583 16.2708 8.6375 15.7625C9.82917 15.2542 11.1167 15 12.5 15C13.8833 15 15.1708 15.2542 16.3625 15.7625C17.5542 16.2708 18.6 16.9667 19.5 17.85V5H5.5V17.85ZM12.5 13C13.4667 13 14.2917 12.6583 14.975 11.975C15.6583 11.2917 16 10.4667 16 9.5C16 8.53333 15.6583 7.70833 14.975 7.025C14.2917 6.34167 13.4667 6 12.5 6C11.5333 6 10.7083 6.34167 10.025 7.025C9.34167 7.70833 9 8.53333 9 9.5C9 10.4667 9.34167 11.2917 10.025 11.975C10.7083 12.6583 11.5333 13 12.5 13ZM5.5 21C4.95 21 4.47917 20.8042 4.0875 20.4125C3.69583 20.0208 3.5 19.55 3.5 19V5C3.5 4.45 3.69583 3.97917 4.0875 3.5875C4.47917 3.19583 4.95 3 5.5 3H19.5C20.05 3 20.5208 3.19583 20.9125 3.5875C21.3042 3.97917 21.5 4.45 21.5 5V19C21.5 19.55 21.3042 20.0208 20.9125 20.4125C20.5208 20.8042 20.05 21 19.5 21H5.5ZM7.5 19H17.5V18.75C16.8 18.1667 16.025 17.7292 15.175 17.4375C14.325 17.1458 13.4333 17 12.5 17C11.5667 17 10.675 17.1458 9.825 17.4375C8.975 17.7292 8.2 18.1667 7.5 18.75V19ZM12.5 11C12.0833 11 11.7292 10.8542 11.4375 10.5625C11.1458 10.2708 11 9.91667 11 9.5C11 9.08333 11.1458 8.72917 11.4375 8.4375C11.7292 8.14583 12.0833 8 12.5 8C12.9167 8 13.2708 8.14583 13.5625 8.4375C13.8542 8.72917 14 9.08333 14 9.5C14 9.91667 13.8542 10.2708 13.5625 10.5625C13.2708 10.8542 12.9167 11 12.5 11Z" fill="#F25B38"/>
</g>
</svg>
