<svg width="30" height="26" viewBox="0 0 30 26" fill="none" xmlns="http://www.w3.org/2000/svg">
<path d="M30 3.70001C28.8725 4.18915 27.6801 4.5125 26.46 4.66001C27.7473 3.89099 28.7119 2.68118 29.175 1.25501C27.9653 1.9751 26.6411 2.48245 25.26 2.75501C24.3368 1.75387 23.1075 1.08745 21.7647 0.860286C20.422 0.633119 19.0418 0.858047 17.8407 1.49979C16.6396 2.14154 15.6854 3.16381 15.1279 4.40626C14.5703 5.64872 14.4409 7.04109 14.76 8.36501C12.3141 8.2413 9.92166 7.60444 7.73798 6.4958C5.5543 5.38716 3.62827 3.83155 2.085 1.93001C1.54371 2.87526 1.25928 3.94574 1.26 5.03501C1.25808 6.04658 1.50633 7.04293 1.98263 7.93536C2.45894 8.82778 3.14853 9.58857 3.99 10.15C3.01197 10.1234 2.05483 9.86096 1.2 9.38501V9.46001C1.20733 10.8773 1.70399 12.2486 2.60597 13.342C3.50795 14.4353 4.75988 15.1835 6.15 15.46C5.61488 15.6229 5.05931 15.7087 4.5 15.715C4.11284 15.7105 3.72663 15.6754 3.345 15.61C3.74086 16.8292 4.50693 17.8947 5.53661 18.6582C6.56629 19.4218 7.80836 19.8453 9.09 19.87C6.9258 21.5729 4.25383 22.5023 1.5 22.51C0.998603 22.5117 0.497603 22.4816 0 22.42C2.81164 24.2354 6.08822 25.1991 9.435 25.195C11.7445 25.219 14.0357 24.7825 16.1747 23.9111C18.3136 23.0397 20.2575 21.7508 21.8928 20.1198C23.5281 18.4887 24.8219 16.5481 25.6988 14.4114C26.5757 12.2746 27.0181 9.9846 27 7.67501C27 7.42001 27 7.15001 27 6.88001C28.177 6.00223 29.1922 4.92615 30 3.70001Z" fill="#00ACEE"/>
</svg>
