<svg width="30" height="30" viewBox="0 0 30 30" fill="none" xmlns="http://www.w3.org/2000/svg">
<path d="M27.7048 -3.87689e-06H2.29484C2.00921 -0.00397081 1.72559 0.0483674 1.46019 0.154022C1.19479 0.259676 0.952799 0.416577 0.74804 0.615764C0.543281 0.814951 0.379766 1.05252 0.266832 1.31491C0.153897 1.5773 0.0937563 1.85936 0.0898438 2.145V27.855C0.0937563 28.1406 0.153897 28.4227 0.266832 28.6851C0.379766 28.9475 0.543281 29.185 0.74804 29.3842C0.952799 29.5834 1.19479 29.7403 1.46019 29.846C1.72559 29.9516 2.00921 30.004 2.29484 30H27.7048C27.9905 30.004 28.2741 29.9516 28.5395 29.846C28.8049 29.7403 29.0469 29.5834 29.2516 29.3842C29.4564 29.185 29.6199 28.9475 29.7329 28.6851C29.8458 28.4227 29.9059 28.1406 29.9098 27.855V2.145C29.9059 1.85936 29.8458 1.5773 29.7329 1.31491C29.6199 1.05252 29.4564 0.814951 29.2516 0.615764C29.0469 0.416577 28.8049 0.259676 28.5395 0.154022C28.2741 0.0483674 27.9905 -0.00397081 27.7048 -3.87689e-06ZM9.13484 25.11H4.63484V11.61H9.13484V25.11ZM6.88484 9.72C6.26424 9.72 5.66905 9.47346 5.23021 9.03463C4.79138 8.59579 4.54484 8.0006 4.54484 7.38C4.54484 6.75939 4.79138 6.1642 5.23021 5.72537C5.66905 5.28653 6.26424 5.04 6.88484 5.04C7.21439 5.00262 7.54811 5.03528 7.86416 5.13582C8.1802 5.23636 8.47145 5.40253 8.71883 5.62344C8.96621 5.84435 9.16413 6.11501 9.29965 6.41772C9.43517 6.72042 9.50522 7.04834 9.50522 7.38C9.50522 7.71165 9.43517 8.03957 9.29965 8.34227C9.16413 8.64498 8.96621 8.91565 8.71883 9.13655C8.47145 9.35746 8.1802 9.52363 7.86416 9.62417C7.54811 9.72472 7.21439 9.75737 6.88484 9.72ZM25.3648 25.11H20.8648V17.865C20.8648 16.05 20.2198 14.865 18.5848 14.865C18.0788 14.8687 17.5861 15.0274 17.1731 15.3198C16.7601 15.6121 16.4466 16.024 16.2748 16.5C16.1575 16.8526 16.1066 17.2239 16.1248 17.595V25.095H11.6248C11.6248 25.095 11.6248 12.825 11.6248 11.595H16.1248V13.5C16.5336 12.7907 17.1282 12.2063 17.8445 11.8098C18.5608 11.4133 19.3717 11.2198 20.1898 11.25C23.1898 11.25 25.3648 13.185 25.3648 17.34V25.11Z" fill="#0072B1"/>
</svg>
